<?xml version="1.0" standalone="no"?>
<!DOCTYPE svg PUBLIC "-//W3C//DTD SVG 20010904//EN"
 "http://www.w3.org/TR/2001/REC-SVG-20010904/DTD/svg10.dtd">
<svg version="1.0" xmlns="http://www.w3.org/2000/svg"
 width="1280.000000pt" height="1280.000000pt" viewBox="0 0 1280.000000 1280.000000"
 preserveAspectRatio="xMidYMid meet">
<metadata>
Created by potrace 1.15, written by Peter Selinger 2001-2017
</metadata>
<g transform="translate(0.000000,1280.000000) scale(0.100000,-0.100000)"
fill="#000000" stroke="none">
<path d="M4057 12513 c-16 -15 -5 -41 21 -52 15 -6 90 -27 167 -47 76 -19 141
-37 144 -39 3 -4 -13 -11 -66 -30 -17 -6 -16 -45 1 -45 7 0 49 12 92 26 l79
25 138 -17 c75 -10 134 -21 130 -24 -13 -11 -324 -114 -528 -175 -104 -31
-217 -68 -250 -82 -33 -14 -79 -26 -102 -27 -24 -2 -45 -5 -48 -8 -9 -9 6 -37
21 -40 9 -2 -13 -35 -62 -93 -135 -161 -140 -165 -201 -165 -41 0 -53 -4 -53
-15 0 -9 12 -20 26 -25 l26 -10 -50 -39 c-49 -39 -112 -108 -112 -124 0 -23
34 -17 64 12 39 37 46 39 46 6 0 -13 8 -28 17 -34 10 -5 16 -11 13 -13 -58
-42 -177 -110 -300 -171 -229 -113 -398 -235 -585 -422 -171 -170 -232 -248
-335 -425 -39 -69 -73 -126 -75 -128 -2 -2 -13 6 -24 17 -25 25 -39 27 -48 5
-3 -8 4 -25 17 -39 13 -14 21 -27 19 -30 -12 -11 -147 -57 -241 -80 -57 -15
-180 -55 -275 -90 -94 -35 -209 -71 -255 -80 -46 -9 -213 -27 -373 -40 -159
-14 -321 -29 -360 -36 -104 -16 -223 -49 -236 -65 -24 -29 5 -33 91 -14 112
25 115 25 96 -2 -19 -27 -21 -58 -3 -58 6 0 32 22 57 49 l45 50 190 16 c220
19 435 41 484 51 l33 7 -17 -33 c-13 -25 -14 -35 -5 -44 9 -8 23 2 58 40 44
48 57 56 204 112 86 33 214 77 285 97 70 20 145 42 166 50 20 8 37 11 37 7 0
-19 -72 -107 -181 -221 l-117 -121 -65 0 c-42 0 -68 -5 -76 -14 -17 -20 9 -37
58 -38 23 0 41 -3 41 -5 0 -7 -132 -174 -195 -248 -28 -33 -62 -76 -75 -95
-104 -153 -283 -388 -302 -397 -60 -27 -96 -41 -126 -47 -22 -5 -32 -13 -32
-27 0 -24 44 -26 96 -4 26 10 34 11 31 2 -2 -6 -62 -89 -133 -183 -124 -165
-130 -172 -175 -183 -51 -13 -92 -47 -68 -55 8 -3 24 -6 36 -8 23 -3 2 -34
-185 -278 -51 -67 -80 -136 -64 -152 15 -15 37 4 61 50 l18 35 7 -26 c4 -18
13 -27 27 -27 19 0 21 5 18 63 l-3 62 119 160 c66 88 144 193 173 232 61 83
76 96 66 59 -4 -19 -2 -28 11 -33 27 -10 45 23 45 80 0 37 6 58 23 81 13 17
52 76 87 130 35 55 95 143 134 195 66 89 71 94 74 68 4 -30 27 -46 43 -30 6 6
6 27 -1 58 -11 49 -11 49 36 117 25 37 90 121 143 186 53 65 106 131 118 148
49 65 19 -8 -53 -131 -42 -72 -102 -182 -133 -245 -36 -72 -88 -155 -138 -221
-95 -124 -266 -385 -329 -503 -24 -45 -64 -145 -90 -221 -26 -77 -51 -143 -57
-146 -5 -4 -6 -12 -3 -18 4 -6 4 -31 0 -56 -9 -65 -110 -173 -206 -221 -55
-28 -73 -33 -84 -23 -20 16 -64 3 -64 -20 0 -11 5 -21 11 -23 6 -2 -20 -24
-57 -49 -106 -71 -172 -126 -189 -158 -18 -35 -6 -48 27 -30 13 7 59 43 103
81 97 85 317 220 332 204 3 -2 -1 -55 -7 -116 -7 -61 -10 -114 -6 -117 16 -16
41 16 44 56 3 42 8 47 29 33 9 -5 8 -22 -3 -67 -14 -63 -44 -274 -64 -459 -7
-64 -11 -202 -9 -335 l4 -226 -41 -70 c-72 -122 -121 -218 -155 -302 -28 -70
-37 -83 -60 -88 -73 -16 -102 -83 -31 -72 31 6 34 4 28 -16 -20 -67 -38 -187
-32 -210 7 -31 30 -36 41 -9 4 9 11 50 16 89 10 90 73 282 129 394 54 108 112
209 121 209 4 0 14 -42 23 -92 43 -242 72 -363 111 -475 45 -127 45 -133 0
-147 -11 -3 -29 -25 -40 -48 -15 -32 -27 -44 -50 -49 -16 -4 -41 -9 -55 -13
-14 -3 -40 -19 -57 -35 -27 -25 -33 -37 -33 -72 0 -27 -7 -50 -18 -63 -10 -12
-24 -40 -30 -62 -13 -46 -26 -54 -123 -73 -39 -8 -64 -20 -84 -41 -27 -28 -27
-30 -15 -75 11 -40 11 -50 -5 -85 -10 -22 -26 -42 -35 -45 -10 -3 -30 -17 -44
-30 -34 -31 -34 -71 0 -106 l26 -27 -22 -42 c-18 -36 -20 -46 -10 -71 10 -23
9 -36 -3 -68 -15 -37 -15 -41 4 -65 11 -14 25 -26 30 -26 6 0 32 -19 59 -42
l49 -42 -6 -62 c-5 -57 -4 -64 20 -88 14 -14 32 -26 40 -26 23 0 55 43 67 90
20 75 110 236 168 301 90 99 236 189 306 189 7 0 11 -57 12 -173 1 -176 21
-333 48 -386 7 -14 18 -42 24 -61 12 -43 13 -160 1 -160 -16 0 -49 -40 -49
-60 0 -12 15 -29 37 -43 35 -23 51 -55 70 -149 3 -16 9 -28 14 -28 5 0 14 -11
19 -25 5 -14 16 -25 24 -25 8 0 17 -8 20 -18 10 -30 53 -65 72 -58 12 5 15 14
11 39 -4 17 -12 77 -18 132 -15 123 -5 164 52 229 36 41 45 46 82 46 52 0 117
29 144 64 12 14 23 26 25 26 3 0 26 -31 52 -70 l46 -70 0 -132 c0 -226 22
-356 97 -578 l35 -105 -36 -63 c-38 -67 -45 -102 -22 -102 20 0 46 28 63 68 8
19 16 32 19 30 2 -3 22 -50 44 -106 35 -90 67 -208 103 -377 10 -49 16 -60 32
-60 14 0 21 8 23 26 3 21 -34 178 -74 319 l-8 25 33 -28 c35 -29 71 -36 71
-13 0 13 -76 88 -118 116 -15 10 -37 54 -66 130 -24 63 -48 124 -52 135 -4 11
26 -12 67 -50 41 -39 108 -97 149 -129 41 -33 140 -123 220 -201 80 -78 169
-156 197 -175 29 -18 55 -41 58 -52 15 -45 55 -58 55 -17 0 23 19 24 115 1
l69 -17 -64 -44 c-97 -66 -180 -133 -233 -189 -96 -103 -174 -255 -162 -313
18 -82 205 -159 383 -159 148 0 294 61 386 161 56 60 96 143 96 199 0 16 5 40
11 53 10 22 19 25 87 31 41 3 78 8 80 11 10 9 -29 42 -94 80 l-66 39 49 16
c71 23 119 56 144 98 12 20 23 38 25 40 2 4 224 -106 241 -119 9 -8 10 -16 3
-29 -39 -73 41 -142 108 -94 21 14 25 14 47 0 14 -9 25 -20 25 -24 -1 -13 -92
-74 -126 -83 -18 -6 -36 -14 -39 -19 -4 -6 -33 -10 -65 -10 -50 0 -60 3 -65
20 -3 11 -18 23 -32 26 -21 6 -31 1 -50 -20 -27 -32 -29 -58 -7 -80 21 -22 57
-20 79 4 13 14 31 20 61 20 l42 0 -10 -37 c-14 -51 -22 -59 -74 -77 -44 -15
-47 -14 -75 6 -24 18 -32 20 -54 10 -38 -18 -52 -55 -31 -86 31 -48 99 -42
112 9 3 14 12 25 19 25 7 0 20 3 29 6 10 4 4 -13 -18 -50 -48 -79 -55 -86 -88
-86 -67 0 -138 -62 -138 -121 0 -69 94 -176 175 -200 25 -7 45 -16 45 -19 0
-3 -53 -56 -119 -117 l-118 -112 -6 70 c-10 123 -61 193 -139 193 -87 1 -119
-99 -58 -182 33 -46 101 -99 137 -108 13 -4 23 -9 22 -13 0 -3 -44 -53 -98
-110 l-99 -104 -17 59 c-31 109 -76 164 -134 164 -11 0 -33 -12 -50 -26 -69
-58 -18 -159 111 -219 l47 -22 -82 -81 c-45 -45 -85 -82 -89 -82 -3 0 -14 24
-24 53 -41 125 -89 187 -146 187 -38 0 -78 -40 -78 -78 0 -63 99 -163 176
-178 19 -3 36 -9 39 -13 2 -4 -27 -39 -65 -76 -43 -43 -70 -63 -70 -53 0 26
-58 130 -93 166 -83 86 -198 50 -156 -49 17 -42 99 -112 163 -140 31 -13 54
-28 53 -34 -2 -5 -39 -24 -83 -42 -148 -61 -188 -151 -94 -216 39 -27 69 -21
110 22 37 38 89 168 76 189 -3 5 1 15 8 21 11 10 16 5 26 -23 25 -76 96 -146
150 -146 11 0 30 10 41 21 17 17 20 29 16 62 -7 54 -40 85 -121 111 l-66 21
58 65 59 65 21 -40 c37 -72 97 -115 163 -115 60 0 88 69 53 130 -23 37 -60 57
-122 66 -29 3 -52 9 -52 13 0 4 34 40 75 81 l74 74 10 -27 c13 -34 77 -105
112 -123 41 -21 102 -18 124 6 37 41 12 118 -48 148 -15 7 -55 18 -89 23 -34
6 -65 12 -67 15 -3 3 42 52 99 109 l105 105 21 -48 c27 -61 79 -121 121 -138
87 -37 163 -2 163 75 0 76 -68 124 -195 137 -36 4 -68 10 -70 14 -3 4 48 57
112 116 75 71 118 104 121 95 16 -48 63 -119 91 -138 63 -43 173 -23 187 34
15 57 -57 136 -135 148 -106 17 -109 8 43 133 75 61 141 112 145 112 4 0 13
-19 20 -42 31 -101 108 -168 195 -168 40 0 53 5 78 30 27 27 30 36 25 72 -11
82 -62 121 -180 140 -42 6 -77 14 -77 17 0 8 276 201 287 201 4 0 14 -22 20
-50 25 -104 68 -163 134 -180 89 -24 186 26 177 91 -5 30 -4 31 31 24 49 -9
52 -12 39 -40 -30 -66 90 -178 234 -220 l57 -16 -82 -130 c-45 -71 -84 -129
-87 -129 -3 0 -18 26 -35 58 -41 79 -101 137 -149 145 -52 8 -103 -14 -112
-47 -21 -83 59 -169 197 -211 l56 -18 -73 -119 c-40 -66 -75 -122 -77 -125 -3
-2 -22 28 -43 67 -40 77 -108 145 -155 155 -67 15 -119 -19 -119 -79 0 -78
101 -157 238 -187 l49 -10 -62 -115 c-35 -63 -65 -117 -68 -120 -2 -3 -15 12
-28 33 -32 52 -97 122 -130 139 -16 8 -46 14 -67 14 -80 0 -93 -67 -29 -152
39 -51 99 -84 172 -93 l54 -7 -49 -99 -50 -98 -45 43 c-109 107 -235 115 -235
16 0 -76 82 -130 197 -130 29 0 53 -1 53 -3 0 -2 -12 -32 -26 -68 -15 -35 -30
-75 -35 -87 -9 -23 -10 -23 -62 24 -94 85 -170 103 -224 52 -32 -30 -29 -64
10 -103 37 -37 84 -54 175 -62 34 -3 62 -10 62 -15 0 -10 -32 -131 -37 -137
-1 -2 -25 17 -52 42 -71 67 -153 83 -203 39 -50 -42 10 -122 106 -142 32 -6
76 -10 98 -8 39 4 39 3 34 -24 -3 -15 -24 -44 -47 -65 -50 -45 -89 -123 -89
-179 0 -53 37 -123 79 -148 43 -25 87 -12 119 34 21 31 23 43 19 106 -3 42
-16 97 -31 136 -37 92 -33 124 10 77 51 -56 163 -81 203 -45 31 28 28 78 -8
118 -29 33 -30 33 -120 32 -88 -2 -91 -1 -91 20 0 21 27 122 37 139 3 4 23 -9
45 -29 82 -74 178 -95 223 -49 30 29 32 64 5 98 -30 38 -78 50 -171 42 -43 -4
-79 -5 -79 -3 0 7 72 183 76 187 2 3 21 -12 42 -32 41 -40 97 -67 137 -67 16
0 38 12 56 29 80 80 -25 173 -161 142 -24 -5 -46 -9 -47 -7 -6 5 90 206 97
206 4 0 24 -20 44 -44 21 -27 59 -56 92 -72 50 -24 59 -26 95 -15 50 15 75 50
58 83 -34 67 -82 90 -193 92 -39 0 -70 5 -69 9 1 4 28 57 60 117 51 98 73 128
73 101 0 -18 107 -90 150 -102 38 -10 51 -9 82 4 51 21 64 52 45 100 -21 50
-64 70 -164 75 -46 2 -83 6 -83 8 0 5 129 215 142 231 8 10 18 1 41 -33 63
-96 151 -129 224 -84 40 24 50 58 29 98 -21 41 -77 65 -168 70 -43 3 -78 9
-78 15 0 10 170 277 176 277 2 0 15 -23 29 -50 54 -106 171 -146 237 -80 35
36 33 68 -9 112 -26 27 -57 37 -181 55 l-53 8 46 73 c26 39 50 72 54 72 4 0
23 -16 42 -36 18 -19 86 -75 149 -124 163 -125 208 -175 380 -425 163 -236
292 -405 363 -472 36 -35 70 -63 76 -63 29 0 16 27 -43 94 -36 40 -66 76 -66
80 0 4 12 5 28 2 15 -3 34 -2 42 4 26 16 -11 41 -71 48 l-54 7 -133 185 c-73
102 -168 233 -212 293 -62 84 -75 106 -57 102 12 -3 31 1 42 9 26 20 9 32 -59
41 -40 6 -63 18 -120 64 -39 32 -111 89 -161 127 -66 50 -85 70 -71 72 11 3
36 -13 65 -41 52 -52 85 -67 142 -67 32 0 47 7 72 31 l31 32 184 -18 c244 -23
501 -9 660 35 75 21 74 22 155 -57 44 -43 49 -45 64 -30 15 15 13 20 -29 62
l-45 45 31 0 c17 0 76 -7 131 -14 55 -8 138 -18 185 -22 77 -6 88 -10 122 -40
50 -45 78 -58 91 -45 7 7 5 18 -7 35 -9 15 -12 26 -8 26 5 0 76 -9 157 -20
144 -20 298 -26 329 -14 21 8 21 30 0 38 -9 3 -37 6 -62 6 -45 0 -46 1 -24 16
29 20 28 44 -1 44 -24 0 -64 -23 -84 -48 -11 -13 -41 -11 -260 17 -136 17
-269 34 -296 37 l-47 6 24 19 c14 11 23 26 20 33 -3 8 26 21 98 41 57 16 148
43 202 62 67 22 103 30 110 23 16 -16 36 -11 36 9 0 13 11 23 36 31 53 18 201
-18 285 -69 64 -39 68 -43 88 -93 11 -30 51 -40 51 -13 0 20 1 20 68 -14 125
-62 272 -101 272 -71 0 17 -44 39 -146 74 -115 38 -160 60 -266 128 -69 44
-89 68 -57 68 25 0 189 84 189 97 0 25 -33 27 -72 4 l-38 -22 0 29 c0 27 6 31
81 61 98 38 197 95 272 156 41 33 64 45 89 45 48 0 150 26 204 52 29 13 58 38
76 64 22 30 41 45 72 54 22 7 66 25 96 39 44 22 62 26 90 20 49 -10 363 -3
438 11 62 11 63 11 100 -20 51 -42 79 -40 73 6 -1 8 31 14 86 18 49 4 167 19
263 32 252 36 379 40 530 19 69 -9 131 -22 138 -28 8 -7 16 -7 20 -1 4 5 41
10 83 10 90 2 160 29 209 79 28 29 36 32 56 23 25 -12 54 -5 54 12 0 6 -13 18
-29 28 -27 15 -29 21 -29 74 0 44 -6 68 -26 102 -81 138 -301 244 -486 234
-85 -5 -147 -29 -203 -78 l-37 -32 -147 51 c-132 45 -313 94 -383 103 -20 2
-2 16 89 68 63 36 119 63 125 61 6 -2 23 -6 38 -9 34 -5 50 22 24 41 -16 11
-13 16 24 45 l40 33 57 -21 c67 -25 197 -29 278 -9 215 52 378 272 323 434
l-14 40 41 20 c52 26 78 74 63 116 -12 34 -87 95 -180 144 l-63 34 35 15 c186
78 254 106 257 106 3 0 2 -22 -2 -49 -12 -88 21 -163 87 -197 43 -22 73 -17
102 17 45 54 29 116 -55 204 -29 30 -50 57 -48 59 10 10 199 84 199 78 -1 -4
-9 -32 -20 -62 -35 -99 -20 -188 37 -226 39 -25 101 -13 136 26 50 56 32 136
-52 232 -23 25 -41 50 -41 55 0 9 228 98 235 91 2 -2 -1 -33 -7 -69 -27 -163
67 -290 166 -225 72 47 34 182 -74 264 -25 19 -46 38 -48 43 -2 4 43 22 100
40 57 17 109 34 115 36 10 4 9 -4 -2 -31 -21 -50 -19 -142 5 -194 34 -75 102
-77 140 -3 38 75 23 157 -42 228 l-20 21 38 11 c22 6 56 14 76 17 l37 6 -9
-33 c-25 -87 -5 -196 45 -246 43 -43 85 -44 126 -4 58 58 34 178 -49 253 -23
21 -42 40 -42 43 0 3 13 5 29 5 23 0 43 -15 102 -82 100 -110 145 -138 223
-138 49 0 71 6 114 30 61 35 100 98 88 143 -9 36 -53 75 -101 89 -55 17 -232
14 -340 -6 -49 -9 -94 -16 -98 -16 -4 0 6 17 22 38 37 45 61 111 61 164 0 30
-7 46 -29 69 -34 33 -54 36 -111 13 -47 -19 -70 -56 -70 -111 1 -35 7 -57 41
-140 7 -18 10 -35 7 -38 -8 -8 -130 -37 -135 -32 -2 3 1 16 7 31 13 34 13 61
0 107 -25 88 -112 118 -171 60 -50 -50 -34 -130 39 -192 l42 -36 -93 -28 c-50
-15 -99 -30 -108 -32 -13 -4 -15 5 -12 54 5 71 -17 118 -68 145 -46 24 -75 23
-104 -7 -47 -46 -26 -138 46 -198 l37 -32 -96 -37 c-53 -21 -101 -38 -107 -38
-6 0 -9 28 -7 72 5 87 -10 140 -45 167 -59 47 -133 8 -133 -69 0 -55 30 -110
85 -157 l45 -39 -102 -41 c-57 -23 -110 -45 -119 -48 -14 -5 -19 5 -27 53 -12
68 -41 131 -75 162 -20 20 -21 22 -4 31 66 37 334 261 484 403 197 188 324
346 676 841 191 268 238 328 355 447 132 135 156 174 87 141 -33 -16 -35 -16
-54 8 -16 20 -19 33 -14 75 7 62 -11 100 -66 144 -28 23 -40 41 -45 69 -3 23
-17 48 -36 66 -23 22 -30 38 -30 65 0 53 -35 82 -106 88 -51 4 -57 7 -66 34
-6 16 -24 36 -42 45 -53 27 -66 43 -66 85 0 51 -31 82 -90 92 -74 12 -110 35
-130 82 -33 77 -77 89 -182 48 -42 -17 -51 -17 -80 -4 -18 7 -53 13 -77 12
-29 -1 -56 6 -77 18 -43 27 -59 25 -113 -13 -50 -36 -112 -59 -130 -48 -6 4
-25 72 -41 152 -59 287 -150 583 -254 823 -30 71 -53 133 -50 138 24 39 156
62 221 37 36 -13 103 -59 103 -70 0 -5 -29 -22 -65 -38 -36 -16 -65 -35 -65
-40 0 -6 20 -11 44 -11 l45 0 -15 -35 c-33 -79 0 -171 103 -285 73 -80 131
-114 199 -115 61 0 95 24 116 84 18 51 15 223 -5 292 -20 68 -73 125 -131 140
-23 6 -49 15 -58 20 -10 5 -31 9 -47 9 -23 0 -31 6 -40 30 -13 40 -29 38 -47
-5 l-14 -35 -45 35 c-51 38 -99 55 -163 55 -45 0 -105 -21 -133 -46 -28 -25
-32 0 -10 70 11 36 32 145 46 242 31 212 46 254 222 644 69 151 134 298 145
325 11 28 21 51 23 53 1 2 24 -15 49 -38 26 -22 49 -40 52 -40 17 0 43 23 54
49 7 17 23 34 40 40 64 22 45 85 -45 146 -38 26 -68 55 -81 80 -11 22 -36 50
-55 63 -19 13 -43 32 -55 43 -14 13 -35 19 -68 19 -58 0 -81 12 -101 50 -13
24 -22 30 -49 30 -18 0 -39 7 -47 16 -27 32 -73 48 -137 45 -72 -2 -114 -24
-147 -75 -21 -31 -22 -31 -93 -28 -70 3 -72 2 -84 -25 -7 -15 -23 -38 -35 -50
-13 -12 -23 -34 -23 -49 0 -16 -10 -36 -26 -51 -46 -42 -30 -57 66 -64 89 -6
162 -31 191 -65 8 -10 21 -37 27 -59 17 -57 48 -104 83 -123 63 -35 61 -32 41
-92 -47 -135 -124 -546 -139 -732 -3 -43 -8 -78 -11 -78 -9 0 -31 35 -32 49 0
7 -21 32 -46 54 -25 22 -67 72 -94 112 -63 94 -310 605 -310 642 0 15 8 60 18
100 18 69 15 93 -11 93 -12 0 -37 -64 -37 -95 0 -14 -3 -25 -7 -25 -8 0 -103
197 -156 323 -27 66 -29 76 -18 115 17 65 15 104 -6 100 -10 -2 -22 -13 -29
-25 -10 -20 -16 -11 -64 95 -119 261 -138 298 -159 316 -17 15 -24 17 -34 7
-9 -9 -6 -22 14 -61 26 -48 26 -63 2 -39 -15 15 -43 4 -43 -15 0 -17 66 -66
90 -66 9 0 32 -37 59 -98 52 -113 190 -452 184 -452 -2 0 -12 5 -22 12 -10 6
-26 8 -35 5 -26 -10 -3 -43 54 -79 43 -27 55 -42 95 -124 25 -51 45 -96 45
-99 0 -4 -26 27 -58 67 -96 120 -330 328 -459 407 -58 36 -63 49 -32 77 28 26
39 48 30 62 -6 9 -15 7 -35 -9 -15 -12 -29 -19 -31 -17 -2 2 -20 59 -40 127
-28 99 -35 139 -35 212 0 71 3 91 15 95 25 10 38 43 24 60 -7 8 -18 13 -25 10
-9 -3 -14 12 -19 52 -21 204 -42 288 -67 280 -21 -7 -20 -49 1 -162 15 -77 21
-147 21 -247 0 -76 -2 -139 -5 -139 -2 0 -43 27 -91 61 -105 73 -112 76 -121
53 -5 -13 4 -27 32 -51 31 -26 35 -34 21 -39 -9 -3 -16 -13 -16 -21 0 -13 9
-15 46 -9 42 5 49 3 97 -34 52 -39 52 -39 83 -154 17 -64 29 -116 27 -116 -2
0 -37 29 -77 64 -40 34 -107 86 -149 115 -87 58 -536 416 -642 511 -38 34
-116 98 -172 142 -57 44 -103 84 -103 91 0 37 -135 262 -223 371 -46 58 -48
63 -43 107 8 56 0 79 -25 79 -14 0 -21 -9 -25 -30 -4 -16 -9 -30 -11 -30 -3 0
-37 31 -75 69 -76 76 -121 102 -141 81 -9 -9 0 -22 43 -59 149 -125 318 -329
398 -479 23 -44 42 -82 42 -84 0 -3 -21 6 -47 19 -78 39 -410 142 -528 164
-216 39 -219 40 -340 121 -39 25 -91 56 -117 69 -36 17 -48 29 -48 45 0 24
-37 57 -52 48 -5 -3 -6 -14 -3 -25 8 -24 2 -24 -71 1 -32 12 -101 32 -152 46
-65 18 -115 39 -164 71 -137 89 -427 208 -450 185 -19 -19 -1 -40 44 -53 130
-35 212 -67 291 -111 48 -27 87 -52 87 -55 0 -4 -8 -15 -17 -25 -15 -17 -15
-20 -1 -34 13 -13 22 -14 55 -4 28 9 46 9 59 2 10 -5 46 -15 79 -22 33 -6 89
-21 125 -32 76 -24 296 -126 288 -133 -3 -3 -27 -1 -54 5 -27 5 -116 17 -199
25 -82 8 -172 21 -200 30 -67 21 -246 51 -435 72 -184 21 -520 21 -647 0 -80
-13 -82 -13 -130 11 -163 84 -398 165 -529 183 l-83 12 -38 66 c-27 46 -44 66
-58 66 -27 0 -22 -38 10 -87 14 -21 24 -38 22 -38 -38 0 -252 50 -380 89 -189
57 -172 53 -180 44z m963 -260 c52 -20 131 -53 175 -75 l79 -40 -49 -18 c-28
-10 -120 -33 -205 -50 -276 -57 -554 -144 -788 -246 -70 -30 -173 -70 -228
-89 -153 -50 -275 -116 -391 -211 l-33 -27 0 49 c0 47 2 49 83 128 46 45 100
101 121 125 28 31 41 40 49 32 20 -20 30 -11 24 22 -5 30 1 40 41 84 55 58
122 89 330 151 123 37 132 38 113 18 -22 -23 -27 -51 -12 -60 9 -6 68 34 119
82 24 23 80 47 235 100 116 41 211 68 222 65 11 -3 63 -21 115 -40z m510 -178
c-30 -7 -59 -10 -65 -7 -12 8 37 20 85 20 29 0 26 -2 -20 -13z m-116 -20 c17
-13 14 -16 -40 -40 -131 -59 -155 -66 -218 -63 l-61 3 76 39 c66 33 182 74
214 75 6 0 18 -6 29 -14z m602 -25 c78 -11 193 -24 256 -30 63 -5 139 -18 169
-29 122 -42 349 -135 349 -143 0 -11 7 -12 -200 27 -263 50 -752 94 -1163 106
l-22 0 21 9 c19 7 278 61 354 73 54 9 101 6 236 -13z m828 -5 c105 -16 181
-34 174 -41 -8 -7 -222 25 -263 40 -52 19 -32 19 89 1z m-1815 -8 c-48 -37
-159 -97 -179 -97 -38 0 -293 -46 -384 -70 -44 -11 -81 -18 -83 -16 -2 2 36
17 84 34 223 78 601 178 562 149z m1864 -87 c57 -22 69 -33 43 -43 -13 -5
-172 55 -186 70 -11 13 89 -6 143 -27z m-1104 -10 c220 -10 289 -19 140 -19
-150 0 -414 -42 -694 -111 -276 -68 -573 -125 -555 -107 6 6 259 109 360 147
l75 28 0 -31 c0 -22 5 -33 17 -35 13 -3 21 7 30 41 10 39 18 48 57 67 25 13
71 26 101 30 56 8 84 7 469 -10z m1468 -15 c64 -19 446 -255 543 -335 14 -12
-96 39 -245 113 -148 73 -317 153 -375 177 -124 52 -118 49 -100 61 18 11 116
2 177 -16z m-2154 8 c-13 -2 -33 -2 -45 0 -13 2 -3 4 22 4 25 0 35 -2 23 -4z
m-268 -22 c-6 -5 -39 -11 -75 -14 l-65 -6 70 14 c39 7 72 13 75 14 2 0 0 -3
-5 -8z m2640 -31 c135 -41 129 -38 116 -53 -8 -10 -7 -17 1 -25 8 -8 20 -7 46
4 33 13 41 13 112 -11 143 -47 357 -191 560 -375 52 -47 138 -120 190 -161 52
-42 131 -106 175 -143 44 -37 126 -99 183 -138 56 -39 102 -72 102 -75 0 -10
-80 40 -237 148 -198 138 -478 306 -643 387 -72 36 -160 90 -235 147 -100 75
-263 184 -455 303 -46 29 -34 27 85 -8z m-2465 16 c0 -2 -15 -9 -32 -15 -30
-10 -31 -9 -14 4 18 14 46 20 46 11z m2143 -55 c154 -65 651 -310 644 -318 -3
-2 -19 3 -36 11 -16 9 -136 54 -266 101 -164 59 -280 108 -380 161 -80 41
-145 79 -145 84 0 8 16 18 33 19 5 1 72 -26 150 -58z m-933 13 c157 -16 396
-63 383 -75 -4 -4 -46 -18 -92 -32 -83 -23 -85 -23 -103 -5 -24 24 -54 19 -51
-9 2 -17 -5 -21 -45 -26 -137 -17 -192 -18 -282 -3 -69 12 -165 16 -350 16
-337 0 -592 -29 -889 -101 -112 -27 -206 -47 -208 -45 -3 3 12 46 23 64 0 1
64 12 140 23 151 22 322 58 564 119 85 22 234 51 330 64 96 14 189 27 205 30
43 6 206 -2 375 -20z m362 -1 c75 -15 135 -30 132 -34 -2 -4 -55 4 -116 17
-218 47 -229 59 -16 17z m-1832 7 c-22 -14 -168 -69 -400 -151 -113 -39 -212
-75 -221 -80 -19 -10 -453 -128 -456 -125 -4 4 239 138 342 189 154 76 325
124 560 157 156 21 196 24 175 10z m2175 -79 c55 -17 199 -85 165 -78 -48 9
-250 80 -250 88 0 13 18 11 85 -10z m160 -126 c116 -37 235 -81 265 -97 69
-38 632 -410 627 -414 -9 -10 -162 38 -227 71 -39 20 -162 92 -271 161 -217
136 -284 170 -474 239 -120 43 -344 95 -414 95 -45 0 -36 7 45 34 l67 23 86
-22 c47 -13 181 -53 296 -90z m-3195 31 c0 -4 -165 -98 -185 -105 -23 -8 37
31 106 68 78 43 79 43 79 37z m3662 -97 c182 -69 411 -165 497 -209 31 -16 79
-50 106 -75 l50 -45 -75 35 c-166 77 -401 179 -495 214 -81 30 -279 140 -253
141 3 0 80 -28 170 -61z m-3015 4 c-6 -21 -12 -39 -13 -41 -1 -2 -91 -37 -200
-78 -145 -55 -259 -90 -419 -129 -121 -29 -244 -62 -272 -74 -29 -11 -53 -19
-53 -17 0 7 150 91 265 149 163 81 440 195 451 185 2 -3 -22 -21 -54 -41 -72
-44 -100 -73 -85 -88 15 -15 45 -4 117 45 90 63 215 126 247 126 27 0 27 -1
16 -37z m938 30 c-11 -2 -96 -22 -190 -43 -477 -111 -456 -107 -740 -136 -88
-8 -173 -18 -190 -21 -52 -8 -8 12 120 56 106 35 296 78 495 111 125 21 587
51 505 33z m1260 -31 c109 -29 563 -217 552 -229 -2 -2 -49 15 -105 37 -132
52 -396 141 -552 185 l-125 36 80 -6 c44 -2 112 -13 150 -23z m-130 -51 c244
-68 498 -156 710 -246 83 -34 185 -77 228 -94 42 -17 90 -38 105 -46 31 -19
38 -21 -173 51 -467 159 -1052 243 -1687 241 -222 -1 -621 4 -617 7 2 2 72 20
155 40 191 46 389 73 619 87 98 6 206 15 240 19 111 16 197 4 420 -59z m-2926
-120 c-58 -32 -143 -82 -187 -110 -45 -28 -84 -51 -87 -51 -16 0 104 129 130
139 60 25 220 80 235 81 8 0 -33 -27 -91 -59z m2196 -1 c505 -11 759 -35 1115
-107 254 -51 520 -133 777 -241 153 -64 130 -47 549 -392 110 -91 235 -192
277 -224 42 -33 75 -61 73 -63 -2 -2 -32 7 -67 21 -68 28 -94 32 -105 15 -11
-18 11 -31 102 -64 l86 -31 -36 -28 c-36 -27 -48 -56 -22 -56 7 0 33 15 56 33
l44 33 50 -18 c28 -11 75 -36 103 -56 29 -20 125 -86 213 -146 105 -72 159
-115 158 -125 -2 -11 6 -17 24 -19 30 -4 200 -141 252 -205 19 -23 68 -96 109
-161 l76 -119 -58 -37 c-32 -21 -73 -56 -92 -79 l-33 -42 -14 26 c-16 32 -34
28 -44 -11 -6 -26 -16 -32 -84 -53 -66 -20 -85 -32 -139 -85 -53 -51 -66 -71
-81 -121 -10 -34 -17 -92 -17 -135 1 -147 75 -320 138 -320 32 0 198 113 239
163 99 121 122 251 60 342 -14 21 -24 38 -22 39 2 1 16 7 31 14 36 15 31 31
-16 57 -45 24 -51 38 -33 73 18 35 103 115 144 136 l31 16 52 -87 c63 -107
162 -321 196 -423 14 -43 33 -141 44 -230 10 -85 21 -170 23 -187 3 -18 2 -33
0 -33 -3 0 -26 14 -50 32 -38 27 -44 36 -39 56 8 32 -3 62 -22 62 -8 0 -17 -9
-20 -20 -7 -27 -14 -25 -53 15 -46 48 -107 88 -119 80 -17 -10 -13 -27 15 -56
l25 -26 -30 -6 c-20 -4 -31 -13 -31 -23 0 -14 8 -16 53 -11 l52 6 109 -88 110
-87 30 -140 31 -139 0 -455 c0 -250 -2 -505 -4 -566 l-3 -110 -29 -11 c-32
-12 -52 -52 -44 -86 7 -26 -24 -47 -112 -78 -81 -28 -136 -62 -181 -115 l-40
-47 -17 52 c-17 51 -17 54 5 114 29 80 32 83 90 97 28 7 50 16 50 22 0 5 -8 7
-17 4 -54 -16 -76 -18 -69 -8 10 17 -10 23 -23 8 -7 -8 -25 -44 -40 -80 l-28
-66 -36 98 c-49 132 -47 201 9 283 24 36 26 36 65 28 45 -10 114 -43 140 -66
9 -8 15 -22 12 -33 -11 -43 81 -82 115 -48 17 17 15 59 -4 87 -14 19 -23 22
-58 19 -32 -4 -54 2 -102 29 -33 18 -70 33 -82 33 -33 0 -27 15 25 53 41 31
49 33 70 22 31 -16 59 -9 83 23 26 32 25 55 -3 88 -45 52 -117 24 -117 -45 0
-30 -5 -40 -31 -55 -75 -45 -142 -128 -174 -221 -7 -18 -8 -17 -16 10 -37 123
-51 314 -27 360 l15 28 22 -22 c13 -13 21 -34 21 -54 0 -68 73 -89 114 -34 19
26 19 30 6 54 -23 40 -44 50 -79 36 -26 -9 -32 -8 -52 13 l-23 24 21 28 c11
15 38 41 60 58 36 28 47 31 89 27 40 -4 54 -1 77 17 56 44 23 120 -52 120 -32
0 -44 -6 -66 -32 -18 -22 -25 -39 -22 -56 4 -20 -7 -37 -57 -86 -34 -34 -69
-72 -78 -86 l-15 -25 3 30 c10 90 27 210 40 288 15 79 18 87 38 87 26 0 50 23
65 63 28 74 -72 133 -126 75 -33 -35 -34 -87 -3 -118 20 -20 20 -20 -1 -132
-28 -152 -27 -149 -48 -102 -13 29 -17 55 -14 86 4 38 2 49 -18 67 -33 31 -93
29 -115 -4 -33 -50 11 -115 77 -115 35 0 38 -3 59 -51 18 -44 21 -66 18 -150
-1 -55 -4 -99 -5 -99 -2 0 -12 19 -24 43 -12 23 -38 64 -58 91 -21 30 -34 59
-33 72 6 45 -89 77 -103 34 -3 -11 -3 -29 0 -40 7 -23 52 -48 76 -43 37 9 121
-134 145 -246 21 -102 19 -105 -35 -48 -38 41 -48 59 -48 85 0 42 -36 81 -85
88 -49 8 -88 -28 -88 -81 0 -72 92 -123 141 -79 16 15 20 14 41 -2 51 -39 96
-107 112 -170 9 -35 27 -92 40 -128 l23 -65 -32 24 c-40 31 -107 55 -153 55
-24 0 -42 7 -58 25 -15 16 -34 25 -54 25 -31 0 -70 -30 -70 -54 0 -26 35 -57
72 -63 33 -5 39 -3 49 21 9 20 19 26 44 26 61 0 132 -29 179 -73 41 -38 50
-56 96 -187 45 -127 100 -315 100 -341 0 -5 -31 22 -69 61 -60 60 -71 78 -82
124 -11 50 -10 55 10 75 42 42 18 101 -43 101 -40 0 -56 -15 -56 -54 0 -22 9
-38 29 -56 21 -18 31 -37 35 -70 l7 -45 -17 30 c-22 41 -42 55 -79 55 -66 0
-105 -91 -60 -140 27 -30 89 -27 121 5 14 14 28 25 32 25 18 0 122 -103 152
-150 38 -60 45 -88 59 -241 13 -135 3 -262 -30 -397 -12 -48 -24 -91 -27 -96
-2 -5 -13 24 -24 65 -19 77 -64 181 -98 229 -11 15 -17 35 -14 44 3 9 3 32 -1
52 l-6 36 -23 -21 c-21 -20 -24 -21 -30 -5 -4 11 1 26 15 40 17 18 19 26 9 44
-6 12 -10 22 -8 23 31 16 45 28 56 50 11 22 10 31 -2 55 -8 16 -23 32 -31 36
-26 10 -70 7 -82 -5 -8 -8 -21 -4 -47 16 -20 15 -38 26 -39 24 -2 -2 -15 -23
-30 -46 -36 -56 -68 -76 -113 -71 -28 3 -43 -1 -61 -18 -23 -21 -24 -26 -13
-59 14 -42 56 -95 75 -95 8 0 22 11 33 25 27 33 41 32 81 -10 37 -40 70 -52
99 -36 15 8 23 7 31 -3 24 -28 -66 -45 -120 -22 -20 9 -64 -81 -54 -113 12
-38 55 -81 82 -81 25 0 43 17 126 115 19 22 29 27 37 19 8 -8 -3 -28 -40 -75
-69 -86 -87 -100 -132 -97 -41 2 -67 -20 -68 -56 0 -18 -1 -18 -20 -1 -19 18
-19 18 0 45 11 16 20 33 20 38 0 19 -43 84 -49 75 -28 -42 -95 -54 -138 -26
-15 10 -28 13 -30 8 -9 -28 -65 -115 -73 -115 -21 0 -17 21 19 90 33 63 37 77
29 102 -6 18 -17 28 -29 28 -31 0 -67 29 -91 71 -12 22 -25 36 -30 31 -4 -4
-19 -36 -33 -71 -28 -72 -26 -80 41 -172 l34 -46 -26 5 c-17 3 -38 22 -58 49
-17 24 -32 40 -33 36 -2 -4 -6 -33 -10 -63 -10 -65 -30 -80 -108 -80 -38 0
-70 9 -125 36 -89 43 -167 54 -220 32 -19 -8 -68 -43 -108 -76 -77 -64 -94
-71 -192 -70 -64 1 -106 -17 -145 -64 -24 -28 -28 -30 -37 -15 -5 9 -20 29
-33 45 -24 26 -24 27 -25 5 0 -45 -35 -22 -44 29 -6 31 -15 42 -52 64 -49 29
-156 75 -162 69 -2 -1 8 -30 23 -64 43 -104 46 -201 6 -201 -10 0 -24 -7 -32
-16 -12 -14 -14 -14 -20 3 -4 10 -29 26 -60 37 -30 11 -60 21 -66 24 -9 3 -13
-10 -13 -45 0 -29 -7 -58 -16 -72 -16 -22 -22 -23 -81 -18 -62 5 -65 4 -59
-17 3 -11 6 -35 6 -52 0 -36 30 -54 123 -74 32 -8 57 -19 57 -26 0 -16 -78
-23 -91 -8 -5 6 -30 17 -55 24 -37 11 -56 11 -93 1 -51 -13 -94 -1 -155 42
l-28 20 7 -24 c4 -13 18 -50 30 -82 l23 -59 -25 -42 -26 -42 -36 70 c-26 51
-50 81 -88 111 l-52 40 0 62 -1 62 -37 -25 c-33 -22 -47 -25 -101 -22 -44 2
-62 -1 -62 -9 0 -7 -10 -17 -21 -24 -21 -11 -21 -9 -15 24 9 47 -15 56 -56 22
-37 -31 -69 -31 -136 0 l-53 24 -24 -56 c-14 -30 -25 -61 -25 -68 0 -16 55
-58 113 -86 36 -17 44 -26 36 -36 -9 -10 -18 -9 -48 7 l-37 19 -13 -35 c-11
-29 -47 -59 -59 -49 -2 1 7 23 19 49 l23 46 -28 29 c-27 28 -31 29 -50 16 -44
-31 -95 -17 -160 44 l-39 36 7 -85 c8 -116 12 -127 62 -156 43 -25 50 -44 15
-44 -9 0 -22 5 -29 12 -15 15 -15 3 -1 -24 8 -16 8 -24 -3 -35 -13 -12 -22
-11 -69 6 -76 29 -94 27 -146 -19 -52 -45 -96 -57 -146 -39 -31 11 -40 10 -88
-14 -29 -15 -68 -27 -86 -27 -38 0 -98 23 -125 47 -14 13 -28 14 -75 8 -32 -5
-87 -9 -122 -9 l-64 0 7 -105 c10 -152 34 -164 136 -66 l55 53 54 -48 c29 -27
68 -56 86 -64 70 -33 160 -11 199 49 9 14 20 25 25 25 4 0 28 -16 52 -35 80
-64 145 -66 221 -5 l38 31 0 -26 c0 -19 -11 -32 -47 -55 -71 -45 -120 -40
-233 25 -23 13 -27 12 -55 -15 -77 -74 -185 -63 -286 27 l-50 46 -42 -45 c-34
-38 -50 -47 -88 -53 l-47 -7 19 -71 c23 -88 23 -87 2 -87 -47 0 -159 -89 -216
-169 -9 -14 -18 -23 -20 -20 -4 3 -144 275 -155 300 -1 3 30 9 70 12 147 10
258 74 258 148 0 77 -71 130 -154 115 -47 -9 -126 -73 -173 -140 -21 -31 -40
-55 -43 -56 -3 0 -38 53 -77 118 -40 64 -81 131 -92 147 l-20 30 72 1 c133 1
227 65 227 155 0 76 -67 114 -155 89 -51 -14 -120 -81 -155 -150 l-22 -42 -49
78 c-28 44 -66 102 -84 129 l-35 50 54 6 c95 11 166 73 166 145 0 107 -152 97
-238 -16 -20 -27 -39 -49 -42 -49 -3 0 -21 20 -40 46 -19 25 -54 67 -77 94
l-43 47 32 7 c88 19 198 100 198 144 0 29 -37 69 -71 76 -22 5 -44 0 -84 -20
-50 -24 -65 -39 -121 -121 -9 -14 -20 -6 -72 48 -58 60 -60 63 -39 72 80 31
102 44 133 79 31 34 35 44 31 75 -8 44 -43 82 -77 82 -37 0 -104 -52 -141
-111 -18 -27 -35 -49 -39 -49 -3 0 -20 15 -38 33 l-32 33 31 18 c51 30 69 53
69 89 0 66 -53 77 -105 23 l-33 -35 -30 49 c-50 80 -136 119 -187 86 -64 -42
7 -159 123 -201 l37 -13 -33 -12 c-18 -7 -37 -20 -42 -30 -16 -30 -11 -76 9
-94 33 -30 71 -10 101 51 l26 52 42 -37 43 -37 -57 -29 c-61 -32 -94 -73 -94
-118 0 -63 79 -90 125 -44 13 13 31 50 41 82 9 33 18 61 20 63 3 3 101 -100
135 -143 l20 -25 -62 -17 c-119 -33 -171 -130 -103 -191 58 -53 126 -14 171
97 15 38 30 70 33 69 3 0 42 -46 88 -102 l83 -102 -44 -6 c-91 -14 -187 -89
-187 -148 0 -41 49 -81 100 -81 53 0 92 36 133 121 l33 70 24 -33 c14 -18 58
-82 98 -143 l73 -110 -43 -5 c-132 -17 -254 -164 -208 -250 15 -28 73 -36 124
-16 56 21 92 61 131 142 l32 67 55 -89 c30 -49 71 -117 92 -151 41 -66 40 -83
-2 -83 -39 0 -116 -25 -173 -57 -55 -30 -99 -90 -99 -137 0 -42 41 -76 90 -76
84 0 146 54 212 184 25 50 32 57 43 45 14 -14 165 -300 165 -312 0 -4 -15 -7
-34 -7 -46 0 -145 -32 -201 -64 -64 -38 -91 -98 -65 -147 10 -17 7 -19 -30
-19 -33 0 -48 -7 -82 -39 l-41 -38 -36 24 c-70 48 -137 11 -191 -103 -16 -34
-34 -65 -39 -69 -6 -3 -42 25 -79 62 -100 99 -261 187 -412 224 -121 30 -342
10 -458 -42 l-46 -20 -69 68 c-118 117 -378 409 -454 510 -40 53 -88 129 -107
167 l-36 71 35 18 c19 9 41 31 50 47 17 32 20 96 6 104 -5 3 -7 16 -4 29 10
42 54 87 112 116 71 36 87 53 67 70 -8 7 -28 11 -44 10 -16 -2 -36 2 -43 8 -8
6 -23 12 -34 14 -10 3 -32 23 -48 47 -15 23 -32 42 -36 42 -4 0 -25 -15 -47
-32 -41 -34 -59 -37 -184 -26 -31 3 -37 -1 -52 -32 -10 -19 -29 -40 -43 -47
-14 -8 -25 -18 -25 -23 0 -6 -11 -20 -25 -32 -14 -12 -25 -32 -25 -44 0 -17
-8 -24 -30 -29 -25 -5 -30 -12 -30 -35 0 -19 -7 -33 -20 -40 -15 -8 -19 -17
-15 -31 8 -26 2 -24 -62 14 -47 27 -61 44 -103 118 -56 99 -82 158 -75 169 3
4 -7 25 -22 46 -87 129 -118 260 -158 677 -8 82 -27 199 -41 260 l-27 112 12
605 c7 333 16 646 21 695 21 214 44 376 50 363 4 -7 13 -43 20 -80 13 -72 30
-105 48 -94 16 10 15 31 -8 122 -10 43 -18 80 -16 81 2 2 20 -4 41 -12 44 -19
74 -13 55 10 -6 7 -31 22 -56 31 -37 14 -45 22 -50 52 -22 117 75 495 226 875
33 84 73 173 89 198 16 24 99 130 185 234 87 105 210 256 274 337 64 81 120
147 123 147 4 1 0 -23 -9 -53 -15 -54 -11 -106 8 -106 10 0 20 20 34 64 6 18
8 18 31 -4 40 -38 51 -12 16 37 -29 40 -29 41 -17 99 10 47 29 83 96 179 46
66 128 185 183 265 143 210 270 364 353 427 63 49 336 219 439 274 105 56 297
140 375 164 58 17 275 47 475 64 66 6 165 22 220 35 118 28 276 31 950 16z
m2060 -90 c197 -86 406 -189 432 -212 24 -23 20 -48 -8 -48 -35 0 -216 86
-326 155 -131 82 -274 179 -253 172 8 -3 78 -33 155 -67z m-4547 -46 c-35 -43
-79 -90 -98 -105 -110 -89 -156 -122 -260 -187 l-115 -72 62 57 c185 172 238
218 346 297 65 47 121 86 124 86 2 0 -24 -34 -59 -76z m722 4 c-114 -49 -364
-178 -445 -230 -165 -105 -158 -92 20 37 132 95 262 165 349 186 82 20 112 22
76 7z m4333 -122 c64 -37 117 -69 117 -71 0 -2 -57 22 -127 53 -95 43 -140 69
-177 105 l-51 47 60 -33 c33 -18 113 -64 178 -101z m-5283 50 c0 -2 -66 -60
-147 -128 -169 -143 -436 -409 -547 -546 -42 -52 -76 -91 -76 -88 0 14 94 157
142 217 159 197 289 318 511 471 116 80 117 81 117 74z m595 -5 c-6 -5 -95
-65 -200 -134 -104 -69 -237 -164 -295 -211 -153 -125 -153 -123 -7 71 l98
131 202 76 c218 81 216 80 202 67z m4797 -172 c56 -28 141 -68 190 -90 49 -21
114 -58 146 -80 65 -48 91 -71 49 -45 -91 56 -145 84 -269 137 -76 32 -142 59
-146 59 -10 1 -89 70 -79 70 4 0 53 -23 109 -51z m-438 -14 c53 -10 98 -27
148 -56 40 -24 132 -78 204 -120 72 -43 164 -94 205 -114 155 -78 413 -251
515 -346 54 -51 130 -119 169 -152 146 -126 227 -203 273 -261 54 -70 132
-219 132 -254 0 -22 -10 -15 -82 56 -46 44 -113 105 -150 136 -37 31 -77 71
-89 89 -50 70 -373 386 -519 506 -229 188 -413 304 -668 420 -135 61 -231 110
-220 111 3 0 40 -7 82 -15z m212 -226 c157 -93 367 -236 479 -326 93 -74 112
-95 123 -131 8 -23 18 -42 23 -42 5 0 9 -7 9 -15 0 -12 -10 -10 -55 9 -67 30
-118 65 -249 170 -56 45 -127 101 -158 124 -31 24 -92 74 -135 110 -43 37
-120 100 -170 141 -51 40 -93 75 -93 77 0 7 131 -61 226 -117z m-5165 94 c-5
-10 -72 -91 -148 -179 -76 -89 -156 -187 -178 -218 -21 -31 -54 -65 -72 -76
-19 -11 -31 -25 -28 -30 4 -6 -44 -72 -106 -147 -62 -76 -132 -165 -155 -198
-76 -110 -195 -325 -273 -494 -74 -160 -100 -212 -101 -201 0 3 7 40 15 84 15
78 54 157 186 372 21 34 63 111 95 170 111 209 252 421 359 538 55 61 126 140
157 176 43 49 234 213 256 219 1 1 -2 -7 -7 -16z m5464 -18 c22 -13 36 -24 30
-25 -5 0 -28 11 -50 25 -22 13 -35 24 -30 25 6 0 28 -11 50 -25z m-307 -29
c122 -61 326 -180 392 -229 144 -108 377 -307 485 -416 117 -118 135 -143 72
-99 -46 31 -290 268 -305 296 -8 13 -19 21 -27 18 -8 -3 -61 33 -122 81 -116
93 -375 267 -513 345 -106 60 -97 62 18 4z m-5020 -26 c-36 -44 -177 -164
-184 -157 -8 8 30 47 121 122 50 41 91 74 93 75 2 0 -12 -18 -30 -40z m5518
-32 c77 -47 294 -201 290 -206 -2 -1 -69 39 -149 90 -81 51 -165 104 -187 118
-37 22 -51 40 -32 40 4 0 40 -19 78 -42z m583 -223 c175 -147 351 -353 473
-555 28 -46 24 -41 -136 147 -117 139 -398 422 -488 493 -16 12 -28 28 -28 36
0 19 61 -23 179 -121z m-6338 -47 c-227 -333 -267 -382 -247 -303 4 14 13 25
21 25 19 0 19 24 0 40 -8 7 -15 20 -15 29 0 14 321 351 334 351 2 0 -39 -64
-93 -142z m17 113 c-1 -5 -58 -66 -125 -135 -77 -79 -123 -120 -123 -109 0 10
53 71 117 135 106 106 141 136 131 109z m-524 -213 c-4 -7 -42 -67 -84 -133
-42 -66 -88 -140 -102 -165 -14 -25 -36 -54 -48 -65 -51 -46 47 120 174 293
33 45 62 82 64 82 2 0 0 -6 -4 -12z m8283 -10 c-3 -8 -6 -5 -6 6 -1 11 2 17 5
13 3 -3 4 -12 1 -19z m-45 -33 l17 -46 -108 -237 c-59 -130 -123 -276 -142
-324 -19 -49 -36 -88 -39 -88 -3 0 -10 10 -15 22 -6 13 -18 24 -29 26 -16 3
-17 -1 -11 -40 4 -23 13 -54 20 -68 8 -17 9 -35 3 -55 -4 -16 -20 -109 -34
-205 -14 -96 -29 -179 -33 -183 -4 -4 -13 12 -20 35 -8 24 -29 74 -48 112 -40
79 -40 56 8 393 30 209 64 379 101 494 l21 67 51 5 c99 10 235 79 222 112 -5
13 2 25 14 25 3 0 13 -20 22 -45z m-8012 -44 c0 -11 -53 -86 -117 -168 -119
-151 -290 -404 -364 -538 -22 -41 -42 -75 -44 -75 -16 0 165 332 248 454 37
54 268 345 275 346 1 0 2 -9 2 -19z m6330 -116 c38 -41 37 -41 -32 -6 -35 18
-47 31 -50 52 l-4 28 25 -19 c14 -10 42 -35 61 -55z m-6344 -42 c-8 -91 -15
-106 -56 -123 -24 -10 -30 -18 -27 -32 6 -20 -97 -161 -218 -301 -33 -38 -87
-104 -120 -146 -76 -97 -128 -159 -124 -146 21 55 129 244 242 420 78 121 292
405 305 405 3 0 2 -35 -2 -77z m7054 -200 c0 -7 9 -18 21 -25 32 -20 178 -222
167 -233 -2 -2 -35 24 -74 58 -83 71 -184 198 -272 342 l-62 100 110 -115 c60
-63 110 -121 110 -127z m-7589 132 c-21 -44 -55 -123 -76 -175 -24 -59 -51
-108 -72 -130 l-34 -35 25 59 c15 32 35 73 45 90 10 17 35 69 57 116 40 88 83
165 89 158 2 -2 -13 -39 -34 -83z m7021 -51 c27 -16 48 -33 48 -37 0 -9 -7 -5
-75 42 -95 66 -83 64 27 -5z m-6979 -113 c-16 -27 -29 -48 -31 -46 -8 8 42 95
55 95 1 0 -9 -22 -24 -49z m7206 -65 c25 -25 43 -48 40 -51 -3 -2 -32 23 -65
56 -32 34 -50 57 -39 51 11 -6 40 -31 64 -56z m-7510 -161 c-16 -43 -43 -93
-59 -112 -17 -19 -30 -32 -30 -29 0 22 108 231 116 224 2 -3 -10 -40 -27 -83z
m97 -64 c-22 -92 -31 -112 -97 -211 -40 -61 -74 -110 -75 -110 -5 0 26 100 71
228 33 94 52 132 81 165 22 23 40 40 42 36 1 -3 -8 -51 -22 -108z m7933 37
c32 -27 76 -113 112 -217 11 -30 17 -56 15 -58 -2 -2 -23 31 -46 74 -24 43
-69 120 -102 171 -59 94 -57 95 21 30z m-161 -159 c11 -27 11 -29 -10 -28 -18
0 -38 23 -88 101 -36 56 -67 106 -69 112 -8 23 155 -158 167 -185z m-124 1
c20 -28 32 -50 26 -50 -8 0 -47 52 -75 99 -19 32 15 -2 49 -49z m256 -35 c19
-31 20 -37 6 -26 -17 14 -46 63 -46 78 0 11 14 -7 40 -52z m-8124 -43 c-30
-59 -56 -96 -56 -79 0 12 46 106 63 129 34 45 31 25 -7 -50z m8026 -19 c9 -26
16 -48 15 -49 -1 -1 -17 20 -35 47 -27 41 -29 49 -14 49 11 0 23 -15 34 -47z
m-69 -25 c71 -102 133 -227 151 -307 9 -41 15 -76 13 -77 -2 -2 -29 55 -61
125 -31 71 -81 170 -111 219 -45 77 -55 102 -39 102 2 0 23 -28 47 -62z m385
31 c-3 -8 -7 -3 -11 10 -4 17 -3 21 5 13 5 -5 8 -16 6 -23z m112 -74 c0 -5 -9
5 -20 23 -26 42 -26 56 0 17 11 -16 20 -34 20 -40z m-25 -66 c19 -37 25 -67
29 -160 4 -63 4 -109 2 -104 -34 90 -97 317 -92 331 7 18 8 18 23 -1 8 -11 25
-41 38 -66z m-120 -174 c96 -210 128 -334 170 -675 9 -69 29 -190 45 -270 29
-144 47 -290 36 -290 -9 0 -53 152 -60 210 -11 89 -104 457 -142 565 -19 55
-60 163 -89 240 -44 114 -125 412 -125 459 0 22 135 -173 165 -239z m-8365
206 c0 -5 -29 -72 -64 -150 -36 -79 -79 -181 -96 -229 -17 -48 -40 -98 -50
-112 -22 -29 35 120 129 336 33 78 61 147 61 153 0 6 5 11 10 11 6 0 10 -4 10
-9z m8559 -56 c0 -5 -6 1 -14 15 -8 14 -14 30 -14 35 0 6 6 -1 14 -15 8 -14
14 -29 14 -35z m-8524 -23 c-11 -44 -69 -152 -80 -152 -2 0 17 47 42 105 26
58 48 103 49 102 2 -2 -3 -27 -11 -55z m160 -18 c-17 -75 -70 -191 -135 -294
-36 -59 -40 -62 -40 -35 1 17 7 60 14 97 11 56 25 87 92 187 43 66 80 118 82
116 2 -1 -4 -34 -13 -71z m8396 -209 c-7 -29 -17 -69 -23 -91 -9 -34 -11 -36
-18 -18 -5 12 -11 84 -14 160 l-7 139 37 -69 c35 -68 36 -72 25 -121z m-8932
-122 c-66 -131 -154 -319 -195 -418 -42 -99 -77 -181 -78 -182 -1 -1 -12 0
-25 4 -20 5 -22 10 -16 42 11 59 91 268 129 334 66 119 289 457 302 457 2 0
-51 -107 -117 -237z m160 190 c-12 -27 -47 -120 -79 -208 -56 -153 -101 -263
-157 -387 -18 -40 -38 -65 -69 -87 l-44 -31 16 38 c8 20 31 74 50 119 37 91
291 603 299 603 2 0 -5 -21 -16 -47z m325 -298 c-35 -104 -78 -251 -96 -325
l-33 -135 -9 83 c-9 80 -8 84 24 160 18 42 59 140 90 217 105 257 111 257 24
0z m8517 94 c-3 -4 -18 -9 -34 -13 -26 -6 -27 -5 -21 21 3 16 11 44 17 63 l10
35 17 -50 c10 -27 15 -53 11 -56z m-8696 -25 c-6 -79 -11 -91 -55 -163 -69
-111 -101 -179 -160 -335 -52 -140 -95 -315 -106 -438 l-7 -67 -28 20 c-41 29
-44 55 -19 166 26 113 168 561 195 613 22 43 179 290 184 290 2 0 0 -39 -4
-86z m8735 -116 c17 -76 50 -311 50 -355 0 -27 -47 79 -87 197 -20 58 -46 133
-59 167 l-23 63 22 5 c31 6 71 11 75 9 2 -2 12 -40 22 -86z m-356 -31 c35 -94
72 -227 78 -277 1 -14 -5 -35 -13 -48 l-16 -22 -27 21 c-21 16 -26 29 -26 62
0 42 -24 271 -36 337 -9 53 2 34 40 -73z m450 -116 c52 -156 139 -481 132
-488 -1 -2 -24 28 -49 67 -43 63 -48 79 -62 172 -18 121 -62 340 -76 375 -10
26 -12 43 -5 43 3 0 30 -76 60 -169z m-8873 -173 c-28 -65 -81 -158 -68 -117
21 65 92 221 95 207 2 -9 -11 -49 -27 -90z m8856 -15 c-3 -10 -5 -4 -5 12 0
17 2 24 5 18 2 -7 2 -21 0 -30z m-9167 -123 c-39 -112 -40 -114 -34 -56 5 53
64 201 71 179 2 -4 -15 -60 -37 -123z m9126 -65 c36 -53 42 -70 48 -135 4 -41
17 -113 29 -160 19 -72 22 -110 21 -245 -1 -88 -5 -212 -9 -275 l-8 -115 -13
45 c-7 24 -23 112 -35 195 -12 82 -32 191 -45 242 -13 50 -33 163 -44 250 -12
87 -28 196 -36 243 -28 165 -29 163 13 85 21 -38 57 -97 79 -130z m58 115 c4
-31 3 -40 -4 -30 -5 8 -10 30 -10 49 0 45 6 37 14 -19z m-8817 -72 c9 -77 8
-112 -8 -217 -46 -314 -64 -671 -69 -1401 l-1 -155 -39 157 c-45 186 -78 417
-90 645 -5 90 -14 208 -21 261 l-11 97 57 215 c65 249 147 490 166 490 3 0 10
-41 16 -92z m8415 45 c54 -58 77 -114 89 -216 11 -91 11 -98 -6 -111 -18 -13
-18 -14 2 -42 15 -23 22 -58 31 -159 6 -71 9 -131 7 -134 -7 -6 -2 -26 -101
414 -29 132 -56 248 -58 258 -6 25 6 21 36 -10z m-8914 -18 c-6 -14 -13 -23
-15 -21 -5 5 15 46 22 46 3 0 -1 -11 -7 -25z m371 -72 c-6 -15 -35 -111 -65
-213 l-55 -185 6 80 c8 109 52 269 98 359 15 31 30 -5 16 -41z m-499 38 c0 -5
-7 -14 -15 -21 -13 -10 -15 -9 -15 9 0 12 6 21 15 21 8 0 15 -4 15 -9z m-35
-160 c-9 -28 -18 -51 -20 -51 -7 0 8 86 18 98 18 23 19 4 2 -47z m166 -170
c-56 -300 -107 -861 -106 -1163 0 -61 -14 -21 -43 125 -56 272 -56 258 -18
446 19 91 42 226 50 298 9 73 21 157 26 185 10 54 120 341 127 334 3 -2 -14
-104 -36 -225z m-105 162 c-8 -45 -57 -185 -63 -179 -2 2 10 50 27 106 16 56
30 104 30 106 0 2 3 4 6 4 3 0 3 -17 0 -37z m9448 -48 c4 -40 3 -53 -3 -40 -9
19 -15 113 -7 104 2 -2 6 -31 10 -64z m-9559 -42 c-4 -54 -9 -101 -12 -105 -2
-4 -12 -2 -23 4 -16 11 -18 20 -13 78 4 44 13 74 27 92 12 15 23 27 25 27 2 1
0 -43 -4 -96z m9620 -14 c21 -41 24 -53 14 -65 -10 -12 -8 -20 9 -42 46 -57
52 -70 67 -162 19 -121 31 -466 17 -500 -10 -23 -11 -21 -11 20 -2 94 -60 400
-100 530 -20 62 -41 270 -28 270 4 0 18 -23 32 -51z m-9379 -109 c-41 -178
-30 -75 15 139 1 3 3 -3 6 -14 2 -11 -7 -67 -21 -125z m8868 -56 c45 -181 73
-384 91 -653 8 -119 17 -238 21 -265 6 -41 5 -48 -7 -40 -8 5 -27 10 -44 11
-72 6 -76 7 -69 23 16 38 14 50 -13 81 l-29 34 7 375 c4 206 5 422 2 480 -3
58 -3 102 1 99 3 -3 22 -69 40 -145z m289 -9 c4 -28 3 -35 -4 -23 -5 9 -11 38
-14 65 -6 55 8 24 18 -42z m-9055 19 c31 -15 32 -18 32 -77 0 -33 5 -109 12
-167 12 -109 4 -265 -13 -254 -5 3 -9 20 -9 37 0 18 -9 88 -21 157 -16 96 -39
320 -33 320 0 0 15 -7 32 -16z m9036 -474 c1 -190 -3 -385 -7 -433 l-9 -88
-22 24 c-33 35 -40 123 -20 245 12 76 14 164 12 401 l-3 303 24 -53 c25 -54
25 -55 25 -399z m-9104 363 c0 -16 5 -62 11 -104 11 -72 11 -78 -9 -107 -12
-16 -22 -35 -22 -40 0 -18 20 -24 36 -11 8 6 16 10 19 8 3 -4 17 -143 32 -332
3 -43 10 -80 15 -83 4 -3 8 -67 8 -142 0 -120 44 -546 66 -643 4 -19 1 -28
-10 -32 -20 -8 -19 -11 -46 118 -12 55 -39 170 -60 255 -58 232 -111 584 -103
685 9 117 34 373 39 413 7 47 24 58 24 15z m9669 -152 c17 -33 38 -91 46 -128
18 -85 18 -93 1 -93 -20 0 -26 -23 -26 -99 0 -79 9 -94 84 -146 l55 -38 -35
-61 c-19 -34 -55 -101 -81 -151 l-45 -89 -19 49 c-40 103 -42 123 -20 161 12
19 21 41 21 49 0 23 -20 28 -40 10 -18 -16 -19 -16 -24 6 -3 13 -12 58 -20 99
-10 47 -17 153 -20 285 -3 116 -8 237 -12 270 l-7 59 55 -61 c30 -34 69 -89
87 -122z m-309 28 c72 -332 78 -487 26 -702 -19 -78 -46 -173 -59 -212 -36
-104 -150 -386 -154 -382 -10 10 23 116 43 140 27 32 32 67 9 67 -19 0 -19 -3
2 100 9 47 24 95 34 108 14 19 16 27 7 42 -9 14 -7 72 10 247 20 204 41 555
42 687 0 27 2 47 5 44 3 -3 19 -65 35 -139z m-159 -219 c16 -91 19 -138 14
-226 -6 -120 -31 -364 -38 -370 -8 -9 -66 18 -71 33 -4 9 -1 64 6 122 7 63 13
230 13 408 l0 302 28 -77 c15 -42 37 -128 48 -192z m-9450 70 c-6 -30 -9 -36
-10 -19 -1 33 12 99 16 79 2 -8 -1 -35 -6 -60z m174 -510 c14 -96 41 -233 60
-305 37 -142 95 -396 95 -419 0 -10 -13 -14 -45 -14 -43 1 -48 4 -82 52 -34
46 -38 59 -44 138 -4 47 -18 124 -30 169 -21 78 -22 94 -15 318 3 130 10 281
13 336 l8 100 7 -100 c4 -55 18 -179 33 -275z m-218 258 c-2 -13 -4 -3 -4 22
0 25 2 35 4 23 2 -13 2 -33 0 -45z m9570 20 c-3 -8 -6 -5 -6 6 -1 11 2 17 5
13 3 -3 4 -12 1 -19z m-10 -80 c-2 -13 -4 -5 -4 17 -1 22 1 32 4 23 2 -10 2
-28 0 -40z m1242 -43 c90 -24 180 -65 201 -90 8 -9 -73 -57 -307 -183 -316
-169 -666 -352 -674 -352 -11 0 6 87 22 114 28 45 25 60 -10 53 -27 -6 -29 -4
-46 53 l-18 59 46 89 c44 85 115 213 122 220 2 2 27 -4 56 -12 61 -19 167 -21
224 -5 52 15 96 46 89 64 -13 33 157 28 295 -10z m-10755 -137 c10 -57 33
-157 51 -223 32 -117 56 -337 33 -303 -93 138 -149 384 -125 551 6 42 14 77
17 77 3 0 14 -46 24 -102z m9806 -14 c16 -60 39 -133 50 -162 18 -47 18 -53 4
-59 -10 -4 -14 -13 -10 -27 5 -20 -58 -118 -146 -227 l-27 -34 -1 44 c0 24 13
100 29 170 32 136 61 315 61 376 0 21 2 36 5 33 3 -3 19 -54 35 -114z m-864
-110 c-6 -16 -15 -17 -36 -4 -13 9 -11 13 10 30 21 16 26 17 28 4 2 -8 1 -22
-2 -30z m-8466 -204 c100 -431 112 -492 126 -640 8 -85 19 -188 24 -228 13
-96 12 -114 -4 -77 -78 181 -148 516 -176 850 -18 215 -24 326 -13 280 2 -11
22 -94 43 -185z m8420 184 c25 -14 25 -14 -11 -8 -50 8 -55 -6 -18 -52 43 -55
99 -149 99 -168 0 -26 -47 2 -61 37 -7 16 -37 64 -66 105 -30 41 -53 75 -51
76 43 27 75 30 108 10z m-87 -82 c25 -29 55 -73 68 -97 l23 -44 -22 -24 c-12
-13 -22 -33 -22 -46 0 -28 51 -81 78 -81 18 0 18 -3 7 -72 -7 -40 -18 -74 -23
-76 -34 -11 -133 -85 -163 -121 l-35 -43 -18 124 c-30 207 -30 207 -14 213 9
4 32 -5 53 -19 21 -14 43 -26 49 -26 11 1 -31 41 -61 59 -17 10 -16 12 7 31
19 15 21 20 9 20 -9 0 -31 -13 -48 -29 -20 -19 -34 -25 -36 -18 -37 113 -46
161 -34 188 14 34 107 121 124 117 7 -2 33 -27 58 -56z m639 -134 c-15 -84
-29 -134 -36 -127 -7 7 39 209 47 209 3 0 -2 -37 -11 -82z m463 26 c9 -32 15
-81 13 -117 l-3 -62 -125 -62 c-69 -34 -127 -62 -130 -62 -4 -1 -4 16 -2 36 3
25 22 58 61 107 31 39 78 104 105 144 27 39 53 72 57 72 4 0 15 -25 24 -56z
m-524 -17 c-8 -8 -11 -5 -11 9 0 27 14 41 18 19 2 -9 -1 -22 -7 -28z m-46
-129 c5 -63 3 -90 -15 -155 -28 -98 -28 -99 -50 -75 -18 19 -18 24 7 163 14
79 27 151 30 159 8 28 20 -11 28 -92z m254 -49 c-33 -107 -51 -151 -72 -174
-16 -16 -27 -25 -25 -19 10 35 134 342 136 339 2 -2 -16 -68 -39 -146z m-9464
-13 c5 -41 3 -56 -4 -52 -6 4 -11 32 -11 63 0 70 5 66 15 -11z m8886 -60 c-14
-30 -47 -53 -59 -42 -3 4 15 117 25 150 4 15 10 10 28 -28 21 -44 22 -48 6
-80z m621 32 c-8 -8 -9 -4 -5 13 4 13 8 18 11 10 2 -7 -1 -18 -6 -23z m-241
-54 l-9 -39 -1 41 c-1 22 2 44 6 48 12 12 14 -8 4 -50z m-9281 -151 c6 -38 4
-45 -17 -58 -18 -12 -24 -13 -28 -3 -9 28 -55 217 -55 229 0 29 93 -128 100
-168z m9509 116 c-21 -12 -24 -2 -8 28 14 26 14 26 17 3 2 -12 -2 -26 -9 -31z
m-591 -72 c-13 -43 -19 -45 -58 -15 -40 29 -39 55 3 73 28 12 34 12 49 -3 15
-15 16 -23 6 -55z m95 28 c-3 -9 -8 -14 -10 -11 -3 3 -2 9 2 15 9 16 15 13 8
-4z m-36 -55 c-5 -29 -15 -50 -22 -50 -10 0 -10 11 3 50 9 28 19 50 22 50 4 0
3 -22 -3 -50z m-194 28 c15 -12 14 -23 -12 -144 -46 -206 -44 -203 -118 -251
l-65 -43 6 28 c3 15 9 79 12 142 7 145 8 152 41 191 27 31 99 89 113 89 3 0
14 -6 23 -12z m106 -73 c0 -5 -17 -57 -37 -115 -34 -98 -39 -105 -65 -108 -24
-3 -28 0 -23 15 6 20 56 249 56 258 0 3 16 -5 35 -17 19 -13 35 -27 34 -33z
m259 34 c11 -17 10 -28 -2 -67 -9 -26 -26 -53 -37 -61 -18 -11 -21 -11 -17 1
3 7 11 43 18 81 8 37 16 67 19 67 4 0 12 -9 19 -21z m-891 -36 c2 -6 -10 -16
-27 -21 -16 -6 -30 -9 -30 -7 0 2 -3 10 -6 18 -4 11 2 17 18 20 30 5 41 3 45
-10z m-7813 -437 c30 -82 54 -151 52 -153 -6 -7 -166 149 -166 162 0 7 7 18
15 25 18 15 15 35 -5 35 -18 0 -25 31 -45 192 -15 124 -15 133 1 158 17 26 17
25 54 -122 21 -81 63 -215 94 -297z m8635 361 c-6 -26 -18 -52 -27 -59 -14
-11 -15 -10 -8 7 5 11 15 39 23 63 20 55 27 48 12 -11z m-159 -37 c0 -15 -72
-171 -77 -167 -5 6 61 177 69 177 5 0 8 -5 8 -10z m-8670 -71 c5 -35 8 -65 6
-67 -8 -8 -38 109 -32 124 10 26 16 12 26 -57z m-70 -140 c0 -6 -4 -7 -10 -4
-5 3 -10 11 -10 16 0 6 5 7 10 4 6 -3 10 -11 10 -16z m8236 -11 c57 -110 83
-262 58 -339 -9 -27 -20 -49 -26 -49 -5 0 -21 -12 -35 -26 -14 -14 -29 -22
-33 -17 -5 4 -13 39 -19 78 -6 40 -19 81 -31 97 -21 28 -21 29 -1 56 19 28 43
108 56 190 4 23 8 42 11 42 2 0 11 -14 20 -32z m280 -20 c-63 -206 -68 -218
-130 -271 -40 -35 -57 -45 -53 -32 30 100 57 200 57 215 0 9 10 30 22 45 22
28 95 85 109 85 4 0 2 -19 -5 -42z m64 17 c0 -13 -80 -190 -87 -192 -5 -2 6
44 25 101 25 79 37 103 48 99 8 -3 14 -6 14 -8z m-8531 -128 c12 -33 19 -62
17 -65 -6 -6 -54 79 -61 111 -6 22 -4 26 8 21 9 -3 25 -33 36 -67z m244 -166
c57 -56 77 -82 77 -102 0 -14 6 -39 14 -55 8 -16 17 -46 20 -67 6 -33 4 -38
-16 -46 -33 -12 -66 7 -88 50 -20 39 -112 267 -125 309 l-8 25 24 -20 c13 -10
59 -53 102 -94z m8130 -1 c-3 -12 -24 -30 -47 -41 l-41 -20 45 40 c25 22 46
41 47 41 0 0 -1 -9 -4 -20z m-7943 -95 c0 -5 -5 -3 -10 5 -5 8 -10 20 -10 25
0 6 5 3 10 -5 5 -8 10 -19 10 -25z m-310 -75 c0 -5 -2 -10 -4 -10 -3 0 -8 5
-11 10 -3 6 -1 10 4 10 6 0 11 -4 11 -10z m-5 -28 c15 -10 44 -121 34 -128
-11 -6 -72 114 -64 126 7 12 16 12 30 2z m357 -9 c8 -10 40 -66 71 -125 50
-96 53 -106 32 -96 -23 10 -95 131 -95 158 0 6 -9 23 -20 37 -31 40 -20 63 12
26z m-445 -151 c18 -37 45 -88 60 -115 32 -54 25 -67 -33 -67 -38 0 -50 -13
-63 -70 -5 -24 -17 -48 -26 -53 -34 -19 -55 -48 -55 -76 0 -27 -15 -49 -26
-38 -11 11 -34 179 -34 247 0 105 5 117 41 112 25 -4 29 -1 29 20 0 14 -9 33
-20 43 -20 18 -19 19 32 41 29 12 55 22 58 22 3 1 19 -29 37 -66z m63 -51 c11
-23 18 -41 16 -41 -7 0 -76 125 -76 136 0 11 30 -38 60 -95z m8974 7 c17 -41
56 -77 124 -115 l52 -30 -157 -64 c-86 -35 -160 -65 -165 -67 -4 -2 -8 9 -8
26 0 41 -24 115 -49 150 -24 34 -20 39 49 66 25 10 63 29 85 42 22 13 43 24
47 24 4 0 14 -15 22 -32z m-8640 -100 c15 -46 29 -90 32 -98 3 -8 -11 10 -30
40 -20 30 -38 63 -42 73 -5 17 2 67 10 67 2 0 16 -37 30 -82z m196 -113 c57
-88 155 -225 219 -304 64 -79 135 -167 158 -196 l43 -52 -113 54 c-61 30 -126
61 -144 68 -32 14 -90 101 -134 202 -25 56 -149 391 -149 401 0 11 16 -12 120
-173z m61 46 c33 -50 57 -91 55 -91 -5 0 -146 188 -146 195 0 21 41 -26 91
-104z m8022 49 c-3 -11 0 -34 7 -50 12 -28 10 -34 -25 -87 -31 -47 -39 -54
-47 -39 -6 11 -2 35 16 80 14 36 26 73 26 84 0 19 8 32 21 32 4 0 5 -9 2 -20z
m-7980 -19 c30 -16 31 -19 17 -41 -9 -13 -13 -12 -26 5 -22 29 -37 58 -27 53
4 -2 20 -10 36 -17z m278 -77 c24 -29 68 -44 127 -44 l59 0 24 -52 c36 -78
109 -187 185 -275 102 -118 104 -123 33 -57 -121 111 -328 273 -479 374 -36
24 -67 45 -70 47 -11 9 28 23 66 23 26 0 47 -6 55 -16z m-646 -4 c3 -5 1 -10
-4 -10 -6 0 -11 5 -11 10 0 6 2 10 4 10 3 0 8 -4 11 -10z m567 -51 c243 -163
432 -323 713 -600 205 -203 209 -208 192 -227 -18 -20 -19 -19 -104 48 -91 73
-187 142 -438 312 -260 178 -396 296 -477 415 -68 102 -68 99 -4 96 46 -1 65
-8 118 -44z m7883 4 c25 -16 45 -30 45 -34 0 -8 -192 -91 -197 -85 -6 5 89
145 99 146 4 0 28 -12 53 -27z m49 -113 l6 -45 -72 0 c-40 0 -90 -4 -111 -9
-70 -16 -32 17 71 60 53 23 98 41 98 40 1 0 4 -21 8 -46z m-8399 0 c3 -5 1
-10 -4 -10 -6 0 -11 5 -11 10 0 6 2 10 4 10 3 0 8 -4 11 -10z m64 -107 c34
-36 60 -68 58 -70 -2 -1 -25 4 -51 13 -32 11 -54 27 -70 51 -22 32 -25 73 -6
73 5 0 36 -30 69 -67z m8035 59 c3 -5 -10 -16 -29 -25 -34 -16 -35 -16 -35 2
0 26 51 44 64 23z m56 -31 c0 -5 -7 -12 -16 -15 -14 -5 -15 -4 -4 9 14 17 20
19 20 6z m-7600 -161 c38 -47 106 -122 153 -167 46 -46 83 -83 80 -83 -34 0
-162 126 -299 295 -76 94 -83 105 -45 75 24 -19 74 -73 111 -120z m7490 111
c-12 -17 -24 -31 -26 -31 -11 0 9 45 24 57 25 20 26 7 2 -26z m-4391 -64 c72
-98 147 -109 221 -32 19 19 39 35 46 35 6 0 19 -17 27 -38 18 -44 33 -59 66
-64 23 -3 24 -4 8 -20 -24 -24 -56 -10 -86 35 l-24 37 -39 -35 c-37 -34 -54
-39 -108 -35 -36 2 -101 43 -128 79 -12 17 -27 31 -33 31 -6 0 -28 -14 -49
-31 -63 -51 -70 -24 -9 37 29 30 57 54 61 54 4 0 25 -24 47 -53z m-3548 2 c41
-13 72 -47 128 -139 19 -30 41 -66 50 -80 l16 -25 -31 22 c-29 21 -192 193
-208 221 -9 15 -3 15 45 1z m7838 -79 c-13 -16 -25 -28 -27 -25 -5 5 37 55 45
55 2 0 -6 -13 -18 -30z m-7193 -88 c417 -286 622 -442 578 -442 -3 0 -104 57
-224 127 l-219 127 -143 144 c-79 80 -138 142 -132 139 6 -4 69 -46 140 -95z
m-268 2 c134 -65 140 -69 257 -184 177 -173 440 -382 605 -480 76 -45 151 -96
166 -113 28 -29 28 -30 4 -15 -60 37 -225 130 -273 154 -92 46 -247 147 -247
161 0 7 -9 13 -20 13 -32 0 -122 62 -209 143 -43 41 -130 118 -192 172 -148
127 -244 215 -235 215 3 0 68 -30 144 -66z m-28 -344 c113 -113 237 -230 277
-260 40 -30 71 -56 69 -58 -7 -7 -154 89 -231 151 -121 98 -323 310 -398 418
-37 53 -67 101 -66 105 0 5 32 -27 72 -71 39 -44 164 -172 277 -285z m3335
280 c35 -56 72 -55 128 1 l41 40 34 -18 c34 -18 72 -57 72 -75 0 -10 -56 17
-81 39 -15 12 -21 10 -50 -16 -18 -17 -48 -34 -65 -37 -35 -6 -87 15 -103 43
-8 15 -13 15 -36 5 -35 -16 -58 -15 -100 5 -36 17 -43 41 -9 35 71 -14 101
-13 113 2 20 24 28 20 56 -24z m-3640 -78 c71 -104 305 -341 423 -430 93 -69
205 -138 362 -220 58 -31 178 -107 267 -169 89 -62 244 -162 344 -221 101 -59
184 -113 187 -120 6 -18 -90 -108 -130 -121 -33 -11 -38 -10 -62 14 -14 14
-29 25 -35 25 -15 0 -24 39 -12 54 13 15 4 26 -21 26 -10 0 -38 16 -64 35 -25
19 -50 32 -55 29 -6 -3 1 -25 16 -50 14 -24 25 -44 23 -44 -2 0 -25 12 -53 26
-43 21 -59 24 -110 19 -71 -6 -169 14 -171 36 -2 30 -5 31 -30 14 -23 -15 -34
-15 -90 -5 -49 9 -80 23 -132 60 -72 52 -280 258 -247 245 42 -16 62 -17 68
-2 3 8 -2 22 -11 30 -17 14 -113 49 -144 51 -18 1 -142 106 -270 228 -74 71
-77 75 -92 145 -30 133 -49 434 -28 433 4 -1 34 -40 67 -88z m7615 -27 c-88
-140 -236 -310 -168 -194 14 24 47 85 73 134 26 50 55 101 63 114 l15 24 18
-24 c17 -23 17 -25 -1 -54z m-131 11 c-34 -49 -53 -63 -25 -21 9 14 23 36 32
50 9 14 19 24 21 21 3 -3 -10 -25 -28 -50z m-121 4 c-20 -27 -38 -39 -38 -25
0 15 34 55 46 55 11 0 9 -8 -8 -30z m-4358 -15 c0 -8 -9 -19 -21 -25 -20 -11
-20 -11 -4 14 20 30 25 32 25 11z m-2250 -70 c62 -57 323 -259 401 -312 67
-46 104 -83 81 -83 -37 0 -462 328 -557 430 l-40 43 40 -23 c22 -13 56 -37 75
-55z m2628 51 c10 -22 8 -24 -18 -30 -32 -6 -115 18 -90 27 91 32 94 32 108 3z
m4348 -32 c21 -44 21 -45 2 -55 -24 -13 -178 -79 -184 -79 -3 0 14 26 37 58
23 31 50 72 61 90 29 47 58 42 84 -14z m-450 -48 c-21 -30 -45 -61 -54 -68 -8
-7 6 20 33 60 26 40 50 70 53 67 3 -3 -12 -30 -32 -59z m-6264 -106 c153 -87
167 -98 177 -131 6 -20 11 -39 11 -43 0 -4 -33 16 -72 43 -79 55 -310 236
-292 230 6 -2 85 -47 176 -99z m6758 76 c0 -3 -44 -34 -97 -69 -102 -67 -243
-149 -243 -141 0 2 14 26 32 53 30 45 40 51 163 104 131 56 145 61 145 53z
m-687 -61 c-40 -48 -53 -55 -53 -27 1 15 63 69 83 71 4 1 -9 -19 -30 -44z
m277 -49 c0 -8 -7 -16 -15 -20 -12 -4 -13 -2 -2 14 14 24 17 25 17 6z m-54
-91 c-16 -24 -46 -35 -46 -16 0 12 51 53 58 46 3 -2 -3 -16 -12 -30z m46 -37
c-7 -7 -12 -8 -12 -2 0 14 12 26 19 19 2 -3 -1 -11 -7 -17z m-6512 -64 c52
-33 110 -69 128 -78 19 -10 32 -20 29 -22 -3 -3 -20 2 -39 12 -40 20 -238 154
-238 161 0 5 0 5 120 -73z m6953 -75 c195 -66 189 -62 175 -97 -7 -15 -13 -29
-15 -31 -1 -2 -15 5 -30 15 -15 10 -91 51 -168 91 -77 40 -134 73 -127 73 8 0
82 -23 165 -51z m-6943 -71 c0 -6 -6 -5 -15 2 -8 7 -15 14 -15 16 0 2 7 1 15
-2 8 -4 15 -11 15 -16z m321 -43 c24 -14 41 -25 38 -25 -14 0 -78 30 -84 40
-9 15 -1 13 46 -15z m-54 -89 c72 -31 136 -56 140 -56 5 0 25 -16 44 -36 l34
-35 -35 15 c-33 14 -234 111 -329 159 -25 12 -47 28 -49 35 -2 8 8 5 30 -7 18
-10 92 -44 165 -75z m346 -115 c66 -14 104 -29 152 -61 l65 -42 -21 -29 -20
-29 -117 59 c-71 36 -131 74 -152 96 -27 28 -30 36 -15 32 11 -4 59 -15 108
-26z m5445 -11 c-9 -29 -320 -227 -317 -203 1 8 298 210 312 212 5 1 7 -4 5
-9z m-5406 -144 c59 -49 45 -51 -39 -5 -94 51 -243 139 -243 144 0 10 250
-113 282 -139z m5273 126 c-16 -14 -109 -77 -125 -86 -8 -4 10 15 40 43 30 28
64 51 75 51 11 0 15 -3 10 -8z m-4559 -39 c-7 -7 -26 7 -26 19 0 6 6 6 15 -2
9 -7 13 -15 11 -17z m4769 -14 c11 -10 46 -31 78 -48 50 -26 55 -31 35 -36
-13 -3 -88 -4 -167 -3 l-143 3 78 56 c81 58 84 59 119 28z m-5105 -9 c12 -8
12 -10 -4 -16 -11 -4 -24 0 -34 10 -15 15 -15 16 3 16 11 0 27 -4 35 -10z
m391 -36 c9 -11 -1 -10 -40 5 -28 12 -54 21 -56 21 -3 0 -5 4 -5 9 0 13 86
-17 101 -35z m-248 -56 c26 -31 47 -59 47 -62 0 -6 -142 85 -164 105 -5 4 7
12 25 17 19 5 36 6 39 3 3 -3 27 -31 53 -63z m-178 -29 c69 -45 124 -83 122
-86 -5 -5 -288 115 -301 128 -12 11 24 51 41 45 7 -3 69 -42 138 -87z m242 30
c4 -14 11 -18 24 -14 12 4 45 -11 96 -44 73 -47 76 -50 41 -44 -26 4 -45 1
-62 -11 -14 -9 -27 -16 -30 -16 -5 0 -137 157 -150 178 -5 8 9 5 34 -8 23 -12
45 -30 47 -41z m-481 -14 c10 -8 14 -15 8 -15 -5 0 -19 7 -30 15 -10 8 -14 15
-8 15 5 0 19 -7 30 -15z m54 -25 c8 -5 11 -10 5 -10 -5 0 -17 5 -25 10 -8 5
-10 10 -5 10 6 0 17 -5 25 -10z m4228 -80 l23 -29 -48 -25 c-75 -37 -265 -117
-270 -113 -2 3 15 16 39 30 24 14 83 57 133 96 49 39 92 71 95 70 3 0 15 -13
28 -29z m-3053 0 c10 -11 13 -20 7 -20 -6 0 -17 -3 -26 -6 -11 -4 -16 -1 -16
11 0 12 -5 15 -20 10 -27 -9 -25 3 3 15 31 12 32 12 52 -10z m2890 -16 c-16
-14 -49 -39 -72 -55 l-43 -30 0 29 c0 36 16 50 77 67 68 19 72 17 38 -11z
m-3729 -80 c154 -60 200 -84 162 -84 -15 0 -234 89 -318 129 -100 48 -37 30
156 -45z m380 50 c25 -15 44 -28 42 -29 -5 -5 -106 20 -114 28 -5 4 -2 12 6
17 20 13 15 14 66 -16z m656 -39 c2 -19 0 -35 -6 -35 -20 0 -116 34 -116 41 0
7 67 26 101 28 12 1 18 -9 21 -34z m3038 6 c-8 -5 -31 -12 -50 -15 -35 -7 -35
-7 -10 8 14 9 36 15 50 15 19 0 21 -2 10 -8z m-514 -38 c-4 -10 -32 -33 -64
-51 l-57 -32 59 55 c60 56 73 62 62 28z m-3176 -3 c0 -5 -7 -7 -15 -4 -8 4
-15 8 -15 10 0 2 7 4 15 4 8 0 15 -4 15 -10z m530 -11 c56 -20 61 -23 45 -35
-17 -13 -17 -13 -133 33 -11 5 -11 7 0 14 18 12 16 12 88 -12z m-772 -69 c6 0
12 -4 12 -10 0 -5 -7 -10 -15 -10 -15 0 -175 77 -175 84 0 2 37 -12 83 -30 45
-19 88 -34 95 -34z m387 54 c14 -6 12 -11 -11 -35 l-27 -28 -40 21 c-38 19
-40 21 -22 34 20 15 72 19 100 8z m109 -44 c12 -12 16 -25 11 -39 -8 -25 -17
-26 -79 -5 l-47 16 27 29 c30 32 54 31 88 -1z m419 -1 c5 -19 3 -20 -31 -14
-43 8 -46 10 -37 24 3 6 19 11 34 11 21 0 30 -6 34 -21z m2919 -9 c-88 -54
-317 -161 -402 -188 -97 -30 -169 -48 -160 -39 3 2 93 41 200 85 107 44 236
99 285 121 99 44 128 52 77 21z m-3955 -26 c-7 -7 -37 7 -37 17 0 6 9 5 21 -1
11 -7 19 -14 16 -16z m3733 -5 c-100 -47 -301 -127 -396 -159 -60 -21 -91 -27
-107 -21 l-22 9 25 10 c14 5 115 42 225 82 291 105 402 137 275 79z m315 22
c-13 -13 -172 -97 -162 -86 7 9 158 94 167 95 2 0 0 -4 -5 -9z m-3112 -79 c42
-9 77 -20 77 -24 0 -5 -3 -8 -7 -8 -17 0 -186 50 -192 56 -3 4 5 4 19 0 14 -4
60 -15 103 -24z m-843 3 c-7 -9 -15 -13 -17 -11 -7 7 7 26 19 26 6 0 6 -6 -2
-15z m53 -27 c8 -28 5 -31 -18 -14 -10 7 -15 18 -11 24 11 18 23 14 29 -10z
m642 12 c3 -5 2 -10 -4 -10 -5 0 -13 5 -16 10 -3 6 -2 10 4 10 5 0 13 -4 16
-10z m-728 -11 c9 -9 -4 -56 -33 -117 0 -1 -18 13 -38 33 l-37 34 42 31 c47
33 50 35 66 19z m466 -42 c26 -11 47 -23 47 -27 0 -3 -14 -14 -30 -24 -30 -17
-31 -17 -85 8 -40 18 -55 30 -55 45 0 10 -3 27 -6 36 -6 15 -3 15 37 0 24 -9
65 -26 92 -38z m2139 30 l48 -12 -148 -35 -148 -36 22 41 c19 33 30 41 61 46
64 10 116 9 165 -4z m-2519 -44 c23 -14 66 -47 94 -74 29 -26 69 -53 88 -59
36 -12 44 -24 23 -33 -7 -2 -68 -43 -135 -91 -68 -47 -125 -86 -127 -86 -1 0
-6 30 -10 68 -3 37 -9 79 -12 93 -5 22 -2 27 18 32 20 5 48 42 48 63 0 3 -14
19 -30 34 -26 24 -29 32 -20 54 5 14 12 26 15 26 3 0 24 -12 48 -27z m663 -4
c8 -14 -10 -11 -32 6 -18 13 -18 14 4 8 12 -3 25 -9 28 -14z m2054 -9 c0 -5
-12 -10 -27 -10 -22 0 -25 2 -13 10 20 13 40 13 40 0z m-128 -12 c-6 -6 -37
-13 -69 -14 l-58 -4 50 14 c67 18 93 20 77 4z m998 8 c0 -1 -5 -17 -11 -33 -8
-24 -23 -36 -72 -57 -58 -24 -65 -25 -106 -13 l-45 12 110 48 c104 44 124 51
124 43z m-2948 -103 c97 -48 177 -94 177 -100 1 -7 -1 -13 -2 -13 -13 0 -134
47 -261 100 -149 63 -149 63 -126 82 12 10 25 18 29 18 3 1 86 -39 183 -87z
m2117 54 c-2 -1 -31 -20 -64 -43 -54 -37 -68 -41 -140 -47 -44 -3 -116 -15
-159 -27 -64 -16 -111 -20 -248 -20 -179 0 -189 3 -137 43 17 12 53 21 110 27
95 9 397 44 539 63 84 11 113 13 99 4z m266 -9 c25 -7 45 -15 45 -19 0 -3 -33
-9 -72 -13 -40 -4 -91 -9 -113 -11 l-40 -5 60 29 c71 35 63 34 120 19z m-2711
-6 c2 -4 -4 -13 -15 -20 -16 -11 -19 -9 -19 8 0 19 24 28 34 12z m163 -68 c59
-26 150 -64 201 -84 l93 -38 -46 -6 c-56 -9 -147 15 -188 50 -38 32 -80 49
-154 64 -90 17 -92 18 -63 40 14 11 30 20 37 20 6 0 60 -21 120 -46z m2673 16
c0 -18 -541 -172 -555 -158 -3 3 28 25 68 50 63 40 83 47 162 57 50 7 140 23
200 36 135 28 125 27 125 15z m-275 -20 c-16 -4 -46 -8 -65 -7 l-35 0 40 7
c22 4 51 7 65 7 22 1 22 0 -5 -7z m-300 -30 c-3 -5 -27 -9 -53 -8 l-47 1 45 7
c25 4 49 8 53 8 5 1 5 -2 2 -8z m-2928 -139 c-9 -23 -7 -34 6 -55 34 -51 102
-42 114 15 3 16 8 29 12 29 3 -1 30 -13 60 -29 l53 -28 -43 -34 c-24 -19 -91
-74 -148 -123 l-104 -89 6 43 c3 27 -2 69 -14 115 -10 41 -16 86 -13 103 5 22
1 35 -14 50 l-20 20 41 61 42 61 17 -55 c12 -43 14 -62 5 -84z m2858 93 c-76
-59 -224 -109 -293 -100 -122 17 -125 17 -111 31 25 24 211 69 309 75 52 4
100 7 105 8 6 1 1 -6 -10 -14z m-355 -3 c48 -6 52 -7 27 -14 -16 -4 -43 -5
-61 -2 -23 5 -36 2 -45 -9 -14 -17 -108 -39 -146 -34 l-25 3 26 33 c25 31 28
32 97 31 40 -1 97 -4 127 -8z m-2447 -51 c-6 -6 -33 30 -33 43 0 5 9 -1 19
-14 11 -13 17 -26 14 -29z m1251 25 c21 -9 36 -18 34 -20 -8 -8 -118 28 -118
37 0 12 30 5 84 -17z m336 9 c72 -15 128 -39 116 -51 -8 -9 -216 48 -216 58 0
12 14 11 100 -7z m-420 -49 c23 -9 28 -14 15 -14 -11 0 -33 6 -50 14 -39 17
-11 18 35 0z m797 -20 c2 -6 -32 -8 -94 -6 -83 4 -91 6 -53 12 62 9 143 6 147
-6z m-615 -37 c16 -8 13 -16 -29 -78 l-46 -70 -29 57 c-16 31 -35 64 -42 73
-33 38 -30 40 51 34 43 -4 86 -11 95 -16z m963 2 c29 -6 6 -8 -84 -9 -113 -1
-123 0 -105 14 20 16 95 14 189 -5z m635 10 c-8 -5 -28 -9 -45 -9 -29 1 -29 1
-5 9 14 4 34 8 45 9 16 1 17 -1 5 -9z"/>
<path d="M5277 10373 c-4 -3 -7 -15 -7 -26 0 -14 -4 -17 -17 -11 -10 4 -31 8
-48 8 -26 1 -30 -3 -30 -24 0 -23 4 -25 47 -28 l48 -3 -16 -25 c-13 -19 -14
-27 -4 -39 7 -8 16 -15 21 -15 16 0 39 32 39 57 0 23 3 24 33 18 41 -9 46 -14
24 -26 -35 -20 -11 -88 27 -73 18 7 32 47 21 63 -8 14 6 14 40 1 25 -9 25 -11
10 -34 -20 -30 -6 -66 25 -66 22 0 44 34 36 56 -6 17 1 17 43 3 29 -10 31 -13
17 -28 -17 -19 -21 -66 -7 -75 5 -3 7 -24 4 -46 -4 -30 1 -53 20 -92 14 -29
28 -71 31 -93 6 -43 50 -90 94 -101 15 -4 22 -14 22 -29 0 -34 53 -75 96 -75
20 0 45 -5 57 -12 12 -6 55 -12 95 -13 62 0 75 -3 85 -20 26 -47 102 -115 160
-143 64 -32 183 -69 192 -60 3 3 1 29 -5 59 -7 37 -20 63 -41 85 -31 32 -31
32 -10 46 27 17 26 41 -3 103 -24 52 -76 105 -103 105 -8 0 -13 7 -11 17 2 13
17 20 52 25 128 18 251 71 356 154 109 86 254 230 248 246 -8 19 -81 55 -151
74 -126 33 -353 2 -473 -66 -32 -18 -68 -30 -89 -30 -33 0 -35 2 -35 35 0 76
-65 103 -164 69 -30 -10 -65 -15 -94 -11 -25 3 -57 1 -71 -5 -33 -12 -96 -73
-123 -118 -12 -19 -22 -36 -23 -38 -2 -1 -14 2 -28 9 -24 11 -24 12 -6 30 23
23 24 42 4 59 -22 18 -45 5 -52 -30 -4 -24 -10 -29 -22 -25 -9 4 -29 12 -44
17 -26 10 -27 11 -12 28 25 27 16 65 -15 65 -22 0 -25 -5 -28 -36 -3 -36 -3
-37 -33 -26 -25 10 -29 16 -24 35 8 34 -21 78 -41 61 -8 -6 -14 -24 -14 -40 0
-27 -2 -29 -27 -23 -41 10 -43 12 -33 40 6 14 8 30 4 35 -6 10 -38 12 -47 2z
m377 -199 c9 -3 13 -10 10 -15 -8 -14 -21 -11 -28 6 -6 17 -4 18 18 9z"/>
<path d="M9105 6253 c-30 -32 -55 -64 -55 -70 0 -7 11 -20 25 -29 21 -14 30
-14 55 -4 17 7 36 21 43 30 14 20 10 130 -4 130 -5 0 -34 -26 -64 -57z"/>
<path d="M9210 6276 c0 -51 16 -86 40 -86 23 0 100 73 100 94 0 17 -31 26 -92
26 -48 0 -48 0 -48 -34z"/>
<path d="M8986 6105 c-31 -51 -30 -71 7 -126 35 -52 71 -51 124 3 l42 43 -19
43 c-15 32 -24 42 -43 42 -13 0 -36 9 -50 20 -14 11 -27 20 -29 20 -1 0 -16
-20 -32 -45z"/>
<path d="M9295 5980 c-10 -10 -26 -22 -36 -25 -19 -6 -59 10 -71 29 -5 7 -23
-4 -50 -31 l-42 -42 19 -41 c19 -41 48 -70 72 -70 42 0 162 165 137 190 -7 7
-16 5 -29 -10z"/>
<path d="M6356 5939 c-31 -27 -34 -33 -25 -57 22 -59 53 -112 63 -109 13 4 72
112 81 149 6 24 4 27 -32 37 -51 14 -48 15 -87 -20z"/>
<path d="M6510 5918 c0 -7 -14 -42 -30 -77 -17 -35 -27 -67 -23 -71 15 -13
142 -42 153 -35 15 10 40 68 40 95 0 14 -19 33 -62 60 -65 43 -78 47 -78 28z"/>
<path d="M6241 5808 c-23 -35 -41 -71 -41 -82 0 -20 37 -86 48 -86 4 0 27 28
51 61 l43 59 -21 45 c-12 25 -21 49 -21 55 0 24 -21 5 -59 -52z"/>
<path d="M6675 5782 c-3 -17 -16 -43 -27 -57 -17 -22 -28 -26 -59 -24 -21 2
-40 1 -42 -1 -2 -3 -7 -28 -11 -57 l-6 -52 63 -31 c43 -21 75 -30 98 -28 l34
3 7 110 6 110 -28 29 -28 28 -7 -30z"/>
<path d="M7300 5707 l0 -53 48 -17 c90 -32 113 -20 105 56 -7 56 -23 67 -104
67 l-49 0 0 -53z"/>
<path d="M7185 5731 c-22 -10 -48 -27 -57 -38 -17 -19 -17 -20 5 -41 28 -27
95 -55 113 -48 10 4 14 25 14 76 0 80 -5 83 -75 51z"/>
<path d="M6388 5733 c-16 -3 -37 -17 -49 -35 l-22 -31 55 -53 c31 -30 65 -54
76 -54 24 0 50 50 58 113 l6 44 -45 12 c-25 6 -47 10 -49 10 -2 -1 -15 -4 -30
-6z"/>
<path d="M7490 5698 c11 -57 -7 -112 -38 -116 -27 -4 -30 -37 -4 -47 63 -26
156 -54 163 -49 15 9 10 35 -21 123 -37 105 -54 131 -84 131 -22 0 -23 -2 -16
-42z"/>
<path d="M5505 5711 c-37 -22 -82 -74 -103 -118 -12 -26 -13 -35 -2 -48 17
-21 45 -19 90 6 36 20 39 21 61 5 34 -24 79 -20 124 11 24 17 53 28 74 28 19
0 36 5 38 10 4 12 -106 88 -159 110 -49 20 -86 19 -123 -4z"/>
<path d="M6769 5617 c-4 -80 -6 -91 -29 -109 -18 -15 -34 -19 -61 -15 -37 5
-37 4 -48 -39 -16 -62 -15 -63 32 -84 64 -30 122 -26 157 9 16 16 32 41 36 56
9 38 -11 120 -50 201 l-33 69 -4 -88z"/>
<path d="M6149 5610 c-25 -82 -22 -95 37 -159 50 -56 82 -56 123 1 18 24 37
60 43 81 11 36 10 39 -22 72 l-34 35 -27 -26 -27 -26 -28 39 c-15 21 -31 42
-35 47 -4 5 -17 -24 -30 -64z"/>
<path d="M7055 5598 c-14 -29 -25 -60 -25 -69 0 -17 102 -69 135 -69 16 0 17
7 11 62 -4 35 -8 63 -9 63 -1 0 -21 15 -45 33 l-42 33 -25 -53z"/>
<path d="M7283 5589 c-11 -28 -15 -31 -43 -25 l-31 6 3 -63 3 -62 54 -27 c106
-54 134 -33 129 95 l-3 69 -50 19 c-27 10 -50 19 -50 19 0 0 -6 -14 -12 -31z"/>
<path d="M5790 5564 c-14 -7 -36 -14 -50 -14 -14 0 -43 -12 -65 -25 -46 -28
-72 -31 -119 -11 -27 11 -36 11 -57 0 -30 -17 -101 -18 -117 -2 -16 16 -18 12
-47 -70 -32 -92 -32 -110 2 -123 39 -14 96 -2 172 38 l66 34 18 -26 c27 -36
96 -36 131 2 l24 26 51 -21 c56 -25 88 -27 125 -10 53 23 44 52 -52 166 -48
57 -46 56 -82 36z"/>
<path d="M6491 5540 c-27 -23 -50 -25 -76 -6 -18 13 -21 10 -42 -43 l-23 -56
27 -23 c47 -38 130 -74 153 -67 28 9 51 46 65 110 l13 54 -45 26 c-25 14 -46
25 -47 25 0 -1 -12 -10 -25 -20z"/>
<path d="M7020 5411 c0 -53 4 -74 20 -94 27 -34 135 -87 178 -87 l34 0 -7 78
c-7 86 -21 105 -84 117 -18 4 -58 17 -87 30 l-54 24 0 -68z"/>
<path d="M6110 5453 c0 -10 -3 -40 -6 -68 -5 -46 -3 -53 31 -97 20 -25 52 -54
70 -63 31 -14 37 -14 64 -1 27 15 66 79 85 143 11 34 -20 45 -58 22 -50 -30
-74 -24 -128 31 -26 28 -50 50 -53 50 -3 0 -5 -8 -5 -17z"/>
<path d="M5941 5344 c-40 -28 -94 -31 -148 -9 -35 15 -36 14 -70 -15 -44 -39
-90 -40 -129 -2 l-29 27 -60 -30 c-46 -22 -74 -29 -120 -30 -33 0 -68 4 -77 8
-14 7 -19 0 -32 -45 -29 -102 -30 -125 -7 -133 29 -9 75 19 101 60 12 19 24
35 27 35 3 0 28 -22 55 -50 80 -81 148 -89 183 -20 9 17 19 30 24 30 4 0 25
-13 46 -30 62 -49 90 -39 134 48 12 23 25 42 29 42 4 0 24 -18 45 -40 41 -44
69 -50 118 -24 26 13 30 20 25 40 -10 37 -68 164 -75 163 -3 0 -21 -12 -40
-25z"/>
<path d="M5860 5150 c-28 -68 -95 -88 -159 -49 -34 21 -35 21 -50 1 -50 -62
-141 -51 -215 26 l-28 30 -44 -45 c-40 -43 -46 -45 -83 -40 l-40 5 -6 -53
c-10 -79 -6 -88 44 -98 44 -9 82 -2 147 24 28 11 34 9 83 -25 77 -52 146 -50
209 7 21 20 24 20 57 4 20 -9 45 -17 56 -17 32 0 76 27 105 65 31 42 45 43
115 11 48 -23 76 -26 65 -8 -2 4 -11 42 -20 84 l-17 77 -39 -20 c-32 -17 -45
-19 -76 -10 -20 6 -49 22 -64 36 l-27 26 -13 -31z"/>
</g>
</svg>
